<?xml version="1.0" encoding="UTF-8"?>
<!DOCTYPE svg PUBLIC "-//W3C//DTD SVG 1.1//EN" "http://www.w3.org/Graphics/SVG/1.1/DTD/svg11.dtd">
<svg xmlns="http://www.w3.org/2000/svg" version="1.1" width="202px" height="399px" style="shape-rendering:geometricPrecision; text-rendering:geometricPrecision; image-rendering:optimizeQuality; fill-rule:evenodd; clip-rule:evenodd" xmlns:xlink="http://www.w3.org/1999/xlink">
<g><path style="opacity:0.999" fill="#21223b" d="M 101.5,1.5 C 105.984,3.81883 109.317,7.31883 111.5,12C 110.944,12.3826 110.611,12.8826 110.5,13.5C 109.833,13.5 109.5,13.8333 109.5,14.5C 109.167,14.5 108.833,14.5 108.5,14.5C 107.29,14.9321 106.29,15.5987 105.5,16.5C 105.5,16.8333 105.5,17.1667 105.5,17.5C 104.833,17.5 104.5,17.1667 104.5,16.5C 103.779,14.6182 102.779,14.2848 101.5,15.5C 100.5,16.1667 99.5,16.8333 98.5,17.5C 98.5,16.8333 98.1667,16.5 97.5,16.5C 97.5,15.8333 97.1667,15.5 96.5,15.5C 96.5,15.1667 96.5,14.8333 96.5,14.5C 95.8592,13.5178 95.1925,12.5178 94.5,11.5C 96.3507,7.78765 98.684,4.45432 101.5,1.5 Z"/></g>
<g><path style="opacity:0.192" fill="#030308" d="M 101.5,1.5 C 98.684,4.45432 96.3507,7.78765 94.5,11.5C 95.1925,12.5178 95.8592,13.5178 96.5,14.5C 95.1667,14.8333 95.1667,15.1667 96.5,15.5C 96.5,15.8333 96.5,16.1667 96.5,16.5C 94.9731,16.573 93.9731,15.9063 93.5,14.5C 94.8333,14.1667 94.8333,13.8333 93.5,13.5C 92.9382,11.5039 93.4382,9.50388 95,7.5C 96.4055,4.59136 98.5722,2.59136 101.5,1.5 Z"/></g>
<g><path style="opacity:0.025" fill="#07070e" d="M 91.5,13.5 C 89.5,13.1667 87.5,12.8333 85.5,12.5C 85.5,16.5 85.5,20.5 85.5,24.5C 87.4147,24.2155 89.0813,24.5489 90.5,25.5C 88.5,25.5 86.5,25.5 84.5,25.5C 83.6864,20.8809 83.3531,16.2142 83.5,11.5C 86.5533,11.1107 89.22,11.7773 91.5,13.5 Z"/></g>
<g><path style="opacity:0.998" fill="#22233d" d="M 91.5,13.5 C 92.1667,13.5 92.8333,13.5 93.5,13.5C 93.5,13.8333 93.5,14.1667 93.5,14.5C 93.9731,15.9063 94.9731,16.573 96.5,16.5C 96.8333,17.8333 97.1667,19.1667 97.5,20.5C 96.8902,21.391 96.5569,22.391 96.5,23.5C 95.6618,23.8417 95.3284,24.5084 95.5,25.5C 93.8333,26.8333 92.1667,26.8333 90.5,25.5C 89.0813,24.5489 87.4147,24.2155 85.5,24.5C 85.5,20.5 85.5,16.5 85.5,12.5C 87.5,12.8333 89.5,13.1667 91.5,13.5 Z"/></g>
<g><path style="opacity:0.022" fill="#05050c" d="M 115.5,12.5 C 113.819,14.0075 111.819,15.0075 109.5,15.5C 109.5,15.1667 109.5,14.8333 109.5,14.5C 110.167,14.5 110.5,14.1667 110.5,13.5C 112.117,12.962 113.784,12.6287 115.5,12.5 Z"/></g>
<g><path style="opacity:0.999" fill="#23253f" d="M 115.5,12.5 C 116.833,12.5 118.167,12.5 119.5,12.5C 119.5,15.1667 119.5,17.8333 119.5,20.5C 119.5,21.5 119.5,22.5 119.5,23.5C 117.694,24.0241 116.028,24.6908 114.5,25.5C 113.292,26.2341 111.959,26.5674 110.5,26.5C 109.338,24.0138 108.004,21.5138 106.5,19C 107.71,17.9609 108.71,16.7942 109.5,15.5C 111.819,15.0075 113.819,14.0075 115.5,12.5 Z"/></g>
<g><path style="opacity:0.125" fill="#020207" d="M 115.5,12.5 C 116.919,11.5489 118.585,11.2155 120.5,11.5C 120.81,14.7131 120.477,17.7131 119.5,20.5C 119.5,17.8333 119.5,15.1667 119.5,12.5C 118.167,12.5 116.833,12.5 115.5,12.5 Z"/></g>
<g><path style="opacity:0.208" fill="#05070c" d="M 101.5,15.5 C 102.779,14.2848 103.779,14.6182 104.5,16.5C 103.391,16.4431 102.391,16.1098 101.5,15.5 Z"/></g>
<g><path style="opacity:0.718" fill="#10101a" d="M 96.5,16.5 C 96.8333,16.5 97.1667,16.5 97.5,16.5C 98.1667,16.5 98.5,16.8333 98.5,17.5C 98.5,18.5 98.5,19.5 98.5,20.5C 98.1667,20.5 97.8333,20.5 97.5,20.5C 97.1667,19.1667 96.8333,17.8333 96.5,16.5 Z"/></g>
<g><path style="opacity:0.208" fill="#020306" d="M 103.5,19.5 C 101.589,20.075 99.922,21.075 98.5,22.5C 98.5,21.8333 98.5,21.1667 98.5,20.5C 99.5307,19.645 100.697,18.9783 102,18.5C 102.765,18.5699 103.265,18.9033 103.5,19.5 Z"/></g>
<g><path style="opacity:0.999" fill="#22243e" d="M 103.5,19.5 C 103.427,21.0269 104.094,22.0269 105.5,22.5C 105.833,22.5 106.167,22.5 106.5,22.5C 106.5,23.1667 106.5,23.8333 106.5,24.5C 106.5,25.1667 106.833,25.5 107.5,25.5C 107.5,25.8333 107.5,26.1667 107.5,26.5C 107.5,27.1667 107.833,27.5 108.5,27.5C 108.5,27.8333 108.5,28.1667 108.5,28.5C 108.369,29.3764 108.702,30.0431 109.5,30.5C 114.127,28.0667 118.461,28.0667 122.5,30.5C 122.5,30.8333 122.5,31.1667 122.5,31.5C 120.692,32.9179 120.025,34.9179 120.5,37.5C 118.1,43.5658 113.767,47.5658 107.5,49.5C 106.5,49.5 105.5,49.5 104.5,49.5C 104.423,45.1234 103.923,40.7901 103,36.5C 102.502,39.8168 102.335,43.1501 102.5,46.5C 102.818,51.0323 102.485,55.3656 101.5,59.5C 100.609,58.8902 99.609,58.5569 98.5,58.5C 98.0645,55.4003 97.7312,52.4003 97.5,49.5C 96.209,49.7373 95.209,49.404 94.5,48.5C 94.0269,47.0937 93.0269,46.427 91.5,46.5C 85.8648,41.8522 82.8648,35.8522 82.5,28.5C 86.7121,28.0775 90.7121,28.7442 94.5,30.5C 96.3716,28.0901 97.705,25.4234 98.5,22.5C 99.922,21.075 101.589,20.075 103.5,19.5 Z"/></g>
<g><path style="opacity:0.243" fill="#070810" d="M 103.5,19.5 C 104.167,19.8333 104.833,20.1667 105.5,20.5C 105.5,21.1667 105.5,21.8333 105.5,22.5C 104.094,22.0269 103.427,21.0269 103.5,19.5 Z"/></g>
<g><path style="opacity:0.412" fill="#0e0e1a" d="M 119.5,23.5 C 118.448,25.256 116.781,25.9227 114.5,25.5C 116.028,24.6908 117.694,24.0241 119.5,23.5 Z"/></g>
<g><path style="opacity:0.041" fill="#020307" d="M 108.5,14.5 C 108.5,15.1667 108.833,15.5 109.5,15.5C 108.71,16.7942 107.71,17.9609 106.5,19C 108.004,21.5138 109.338,24.0138 110.5,26.5C 110.158,27.3382 109.492,27.6716 108.5,27.5C 107.833,27.5 107.5,27.1667 107.5,26.5C 108.833,26.1667 108.833,25.8333 107.5,25.5C 106.833,25.5 106.5,25.1667 106.5,24.5C 107.833,23.8333 107.833,23.1667 106.5,22.5C 106.672,21.5084 106.338,20.8417 105.5,20.5C 105.5,19.5 105.5,18.5 105.5,17.5C 106.833,17.1667 106.833,16.8333 105.5,16.5C 106.29,15.5987 107.29,14.9321 108.5,14.5 Z"/></g>
<g><path style="opacity:0.261" fill="#030409" d="M 122.5,30.5 C 118.461,28.0667 114.127,28.0667 109.5,30.5C 108.702,30.0431 108.369,29.3764 108.5,28.5C 112.356,28.0291 116.189,27.3624 120,26.5C 123.197,26.6631 124.031,27.9964 122.5,30.5 Z"/></g>
<g><path style="opacity:0.925" fill="#161727" d="M 122.5,31.5 C 122.405,33.7857 121.738,35.7857 120.5,37.5C 120.025,34.9179 120.692,32.9179 122.5,31.5 Z"/></g>
<g><path style="opacity:0.027" fill="#040409" d="M 98.5,22.5 C 97.705,25.4234 96.3716,28.0901 94.5,30.5C 90.7121,28.7442 86.7121,28.0775 82.5,28.5C 82.8648,35.8522 85.8648,41.8522 91.5,46.5C 84.0448,42.0892 80.7115,35.5892 81.5,27C 85.5719,26.7332 89.5719,27.2332 93.5,28.5C 94.9185,27.9953 95.5852,26.9953 95.5,25.5C 96.3382,25.1583 96.6716,24.4916 96.5,23.5C 97.1667,23.1667 97.8333,22.8333 98.5,22.5 Z"/></g>
<g><path style="opacity:0.041" fill="#030306" d="M 107.5,49.5 C 106.432,50.4345 105.099,50.7678 103.5,50.5C 103.768,48.901 103.434,47.5676 102.5,46.5C 102.335,43.1501 102.502,39.8168 103,36.5C 103.923,40.7901 104.423,45.1234 104.5,49.5C 105.5,49.5 106.5,49.5 107.5,49.5 Z"/></g>
<g><path style="opacity:0.021" fill="#020204" d="M 86.5,49.5 C 86.1667,49.5 85.8333,49.5 85.5,49.5C 83.9472,46.746 81.6139,45.9126 78.5,47C 74.9559,49.8732 74.6225,53.0399 77.5,56.5C 75.0503,56.1257 74.0503,54.6257 74.5,52C 75.2373,45.957 78.5707,43.957 84.5,46C 85.8228,46.8159 86.4894,47.9826 86.5,49.5 Z"/></g>
<g><path style="opacity:0.997" fill="#21233d" d="M 85.5,49.5 C 85.5,51.5 85.5,53.5 85.5,55.5C 84.5081,57.0265 83.0081,57.6932 81,57.5C 79.6153,57.4857 78.4486,57.1524 77.5,56.5C 74.6225,53.0399 74.9559,49.8732 78.5,47C 81.6139,45.9126 83.9472,46.746 85.5,49.5 Z"/></g>
<g><path style="opacity:0.282" fill="#0c0b14" d="M 91.5,46.5 C 93.0269,46.427 94.0269,47.0937 94.5,48.5C 92.9731,48.573 91.9731,47.9063 91.5,46.5 Z"/></g>
<g><path style="opacity:0.025" fill="#000001" d="M 139.5,52.5 C 137.777,51.1999 135.61,50.5332 133,50.5C 130.639,50.5039 128.473,50.8373 126.5,51.5C 124.167,51.5 121.833,51.5 119.5,51.5C 120.952,50.6981 122.618,50.1981 124.5,50C 129.823,49.5006 135.156,49.334 140.5,49.5C 140.737,50.791 140.404,51.791 139.5,52.5 Z"/></g>
<g><path style="opacity:0.918" fill="#171826" d="M 85.5,49.5 C 85.8333,49.5 86.1667,49.5 86.5,49.5C 87.8458,51.7918 87.5124,53.7918 85.5,55.5C 85.5,53.5 85.5,51.5 85.5,49.5 Z"/></g>
<g><path style="opacity:0.582" fill="#121320" d="M 126.5,51.5 C 128.473,50.8373 130.639,50.5039 133,50.5C 135.61,50.5332 137.777,51.1999 139.5,52.5C 139.167,52.5 138.833,52.5 138.5,52.5C 134.702,51.5166 130.702,51.1832 126.5,51.5 Z"/></g>
<g><path style="opacity:0.03" fill="#020203" d="M 97.5,49.5 C 97.7312,52.4003 98.0645,55.4003 98.5,58.5C 97.2749,57.8478 96.6083,56.6811 96.5,55C 96.6962,53.1216 97.0295,51.2883 97.5,49.5 Z"/></g>
<g><path style="opacity:0.999" fill="#23253f" d="M 119.5,51.5 C 121.833,51.5 124.167,51.5 126.5,51.5C 130.702,51.1832 134.702,51.5166 138.5,52.5C 128.87,58.0934 124.87,66.4267 126.5,77.5C 126.685,79.1958 127.519,80.5291 129,81.5C 129.62,68.7028 136.12,63.7028 148.5,66.5C 148.738,68.4044 149.738,69.7377 151.5,70.5C 153.802,78.316 151.135,81.9827 143.5,81.5C 142.699,79.9582 142.366,78.2915 142.5,76.5C 144.467,76.2606 146.301,76.5939 148,77.5C 149.313,73.7949 148.146,71.4615 144.5,70.5C 137.943,72.0538 135.609,76.0538 137.5,82.5C 138.961,85.255 141.295,87.0884 144.5,88C 148.486,88.4988 152.486,88.6655 156.5,88.5C 157.5,88.5 158.5,88.5 159.5,88.5C 159.5,89.8333 159.5,91.1667 159.5,92.5C 159.293,95.2406 158.293,97.5739 156.5,99.5C 150.426,98.9193 144.426,97.9193 138.5,96.5C 127.737,95.1798 117.071,95.8464 106.5,98.5C 104.793,98.2716 103.126,97.9383 101.5,97.5C 99.4855,96.0762 97.1522,95.4095 94.5,95.5C 92.847,95.3404 91.5137,94.6737 90.5,93.5C 85.7422,88.4356 82.5755,82.4356 81,75.5C 80.2411,73.9371 79.0744,72.9371 77.5,72.5C 76.5084,72.6716 75.8417,72.3382 75.5,71.5C 74.8166,69.8235 73.4832,69.1568 71.5,69.5C 71.1667,69.5 70.8333,69.5 70.5,69.5C 76.7695,66.4543 83.2695,63.7876 90,61.5C 94.6631,62.1446 98.3298,64.478 101,68.5C 104.726,60.2134 110.893,54.5467 119.5,51.5 Z"/></g>
<g><path style="opacity:0.039" fill="#05040a" d="M 98.5,58.5 C 99.609,58.5569 100.609,58.8902 101.5,59.5C 100.221,60.7152 99.221,60.3818 98.5,58.5 Z"/></g>
<g><path style="opacity:0.043" fill="#020307" d="M 119.5,51.5 C 110.893,54.5467 104.726,60.2134 101,68.5C 98.3298,64.478 94.6631,62.1446 90,61.5C 83.2695,63.7876 76.7695,66.4543 70.5,69.5C 68.1582,69.2252 68.1582,68.3919 70.5,67C 76.9856,64.6678 83.4856,62.5011 90,60.5C 94.7833,60.3926 98.45,62.3926 101,66.5C 104.294,58.0459 110.461,53.0459 119.5,51.5 Z"/></g>
<g><path style="opacity:0.038" fill="#030307" d="M 148.5,66.5 C 136.12,63.7028 129.62,68.7028 129,81.5C 127.519,80.5291 126.685,79.1958 126.5,77.5C 127.117,77.6107 127.617,77.944 128,78.5C 128.861,69.9715 133.528,64.9715 142,63.5C 144.675,63.6573 146.841,64.6573 148.5,66.5 Z"/></g>
<g><path style="opacity:0.663" fill="#0e0e17" d="M 148.5,66.5 C 150.262,67.2623 151.262,68.5956 151.5,70.5C 149.738,69.7377 148.738,68.4044 148.5,66.5 Z"/></g>
<g><path style="opacity:0.012" fill="#010204" d="M 87.5,69.5 C 88.209,68.596 89.209,68.2627 90.5,68.5C 90.5,69.5 90.5,70.5 90.5,71.5C 89.209,71.7373 88.209,71.404 87.5,70.5C 90.1667,70.1667 90.1667,69.8333 87.5,69.5 Z"/></g>
<g><path style="opacity:0.949" fill="#151623" d="M 71.5,69.5 C 73.4832,69.1568 74.8166,69.8235 75.5,71.5C 73.847,71.3404 72.5137,70.6737 71.5,69.5 Z"/></g>
<g><path style="opacity:0.999" fill="#232540" d="M 73.5,77.5 C 74.0798,79.7488 75.4131,81.4154 77.5,82.5C 79.0395,84.8383 79.7062,87.5049 79.5,90.5C 80.4194,93.0892 82.086,95.0892 84.5,96.5C 87.3598,100.662 88.1932,105.328 87,110.5C 80.9226,118.988 76.7559,128.321 74.5,138.5C 73.6762,142.312 73.1762,146.312 73,150.5C 72.3292,149.748 71.4959,149.414 70.5,149.5C 69.9202,147.251 68.5869,145.585 66.5,144.5C 63.8131,139.47 61.4798,134.47 59.5,129.5C 49.9735,119.041 48.9735,107.707 56.5,95.5C 55.6042,93.1994 55.4375,90.8661 56,88.5C 59.5161,83.4117 61.3494,77.745 61.5,71.5C 65.8322,72.9994 69.8322,74.9994 73.5,77.5 Z"/></g>
<g><path style="opacity:0.018" fill="#040409" d="M 144.5,70.5 C 148.146,71.4615 149.313,73.7949 148,77.5C 146.301,76.5939 144.467,76.2606 142.5,76.5C 142.366,78.2915 142.699,79.9582 143.5,81.5C 139.879,80.2641 139.545,78.2641 142.5,75.5C 146.706,74.8842 147.373,73.2175 144.5,70.5 Z"/></g>
<g><path style="opacity:0.102" fill="#070710" d="M 73.5,77.5 C 75.5869,78.5846 76.9202,80.2512 77.5,82.5C 75.4131,81.4154 74.0798,79.7488 73.5,77.5 Z"/></g>
<g><path style="opacity:0.029" fill="#04050a" d="M 77.5,72.5 C 79.0744,72.9371 80.2411,73.9371 81,75.5C 82.5755,82.4356 85.7422,88.4356 90.5,93.5C 88.2843,92.7974 86.451,91.4641 85,89.5C 82.7766,83.6451 80.2766,77.9784 77.5,72.5 Z"/></g>
<g><path style="opacity:0.069" fill="#010203" d="M 137.5,82.5 C 140.431,84.797 143.764,86.297 147.5,87C 152.021,87.0299 156.355,87.1966 160.5,87.5C 158.901,87.2322 157.568,87.5655 156.5,88.5C 152.486,88.6655 148.486,88.4988 144.5,88C 141.295,87.0884 138.961,85.255 137.5,82.5 Z"/></g>
<g><path style="opacity:0.459" fill="#0e0e1a" d="M 156.5,88.5 C 157.568,87.5655 158.901,87.2322 160.5,87.5C 160.784,89.4147 160.451,91.0813 159.5,92.5C 159.5,91.1667 159.5,89.8333 159.5,88.5C 158.5,88.5 157.5,88.5 156.5,88.5 Z"/></g>
<g><path style="opacity:0.149" fill="#030306" d="M 73.5,77.5 C 69.8322,74.9994 65.8322,72.9994 61.5,71.5C 61.3494,77.745 59.5161,83.4117 56,88.5C 55.4375,90.8661 55.6042,93.1994 56.5,95.5C 48.9735,107.707 49.9735,119.041 59.5,129.5C 52.7033,125.993 49.7033,120.326 50.5,112.5C 50.3531,106.277 52.0197,100.61 55.5,95.5C 54.9264,93.9411 54.2598,92.4411 53.5,91C 55.3333,87.1667 57.1667,83.3333 59,79.5C 59.498,76.5184 59.6646,73.5184 59.5,70.5C 65.2773,70.7219 69.9439,73.0553 73.5,77.5 Z"/></g>
<g><path style="opacity:0.361" fill="#080811" d="M 79.5,90.5 C 81.914,91.9108 83.5806,93.9108 84.5,96.5C 82.086,95.0892 80.4194,93.0892 79.5,90.5 Z"/></g>
<g><path style="opacity:0.026" fill="#030308" d="M 64.5,95.5 C 65.1667,101.167 65.8333,106.833 66.5,112.5C 66.838,117.186 67.0047,121.853 67,126.5C 65.8502,123.582 65.0169,120.582 64.5,117.5C 65.734,115.952 65.734,115.285 64.5,115.5C 63.5318,113.393 63.1984,111.059 63.5,108.5C 64.8333,107.5 64.8333,106.5 63.5,105.5C 63.4595,102.119 63.7929,98.7861 64.5,95.5 Z"/></g>
<g><path style="opacity:0.525" fill="#0f101b" d="M 94.5,95.5 C 97.1522,95.4095 99.4855,96.0762 101.5,97.5C 98.8478,97.5905 96.5145,96.9238 94.5,95.5 Z"/></g>
<g><path style="opacity:0.859" fill="#141522" d="M 138.5,96.5 C 144.426,97.9193 150.426,98.9193 156.5,99.5C 156.038,100.88 155.038,101.547 153.5,101.5C 148.323,99.9967 143.323,98.33 138.5,96.5 Z"/></g>
<g><path style="opacity:0.529" fill="#11111d" d="M 66.5,112.5 C 65.8333,106.833 65.1667,101.167 64.5,95.5C 64.838,93.146 65.338,90.8127 66,88.5C 66.4997,96.4931 66.6664,104.493 66.5,112.5 Z"/></g>
<g><path style="opacity:0.036" fill="#020306" d="M 167.5,115.5 C 157.288,108.232 145.954,103.399 133.5,101C 106.489,99.0419 88.9892,110.875 81,136.5C 79.7981,146.664 81.9648,155.998 87.5,164.5C 80.1845,156.244 77.6845,146.577 80,135.5C 85.5555,115.281 98.7222,103.448 119.5,100C 138.006,97.8922 154.006,103.059 167.5,115.5 Z"/></g>
<g><path style="opacity:0.999" fill="#232540" d="M 167.5,115.5 C 168.11,116.391 168.443,117.391 168.5,118.5C 168.158,119.338 167.492,119.672 166.5,119.5C 160.19,120.19 153.857,120.524 147.5,120.5C 147.167,120.5 146.833,120.5 146.5,120.5C 141.144,117.497 140.477,118.164 144.5,122.5C 144.12,124.698 144.787,126.365 146.5,127.5C 150.373,140.583 146.039,149.583 133.5,154.5C 132.167,154.5 130.833,154.5 129.5,154.5C 132.201,148.101 133.035,141.434 132,134.5C 131.34,132.676 130.173,131.343 128.5,130.5C 128.027,129.094 127.027,128.427 125.5,128.5C 116.803,125.572 108.803,126.906 101.5,132.5C 99.5541,133.254 98.7207,134.588 99,136.5C 105.454,132.258 111.621,132.591 117.5,137.5C 119.414,142.678 117.747,146.345 112.5,148.5C 110.955,147.77 110.122,146.437 110,144.5C 109.184,143.177 108.017,142.511 106.5,142.5C 98.3746,142.961 94.3746,147.294 94.5,155.5C 96.7629,162.593 101.596,167.26 109,169.5C 109.5,169.333 110,169.167 110.5,169C 106.061,156.907 110.394,150.407 123.5,149.5C 123.5,150.5 123.5,151.5 123.5,152.5C 122.167,155.833 122.167,159.167 123.5,162.5C 123.859,164.371 124.859,165.871 126.5,167C 133.233,170.69 139.566,174.857 145.5,179.5C 147.43,183.1 150.097,186.1 153.5,188.5C 153.427,190.027 154.094,191.027 155.5,191.5C 155.427,193.027 156.094,194.027 157.5,194.5C 159.008,196.181 160.008,198.181 160.5,200.5C 160.41,203.152 161.076,205.485 162.5,207.5C 165.378,226.315 160.878,243.315 149,258.5C 145.258,262.747 141.092,266.414 136.5,269.5C 134.973,269.427 133.973,270.094 133.5,271.5C 132.486,272.674 131.153,273.34 129.5,273.5C 127.847,273.66 126.514,274.326 125.5,275.5C 125.158,276.338 124.492,276.672 123.5,276.5C 122.957,276.56 122.624,276.893 122.5,277.5C 124.149,279.65 125.982,281.65 128,283.5C 128.483,284.448 128.649,285.448 128.5,286.5C 126.973,286.427 125.973,287.094 125.5,288.5C 125.167,289.5 124.5,290.167 123.5,290.5C 120.833,291.167 119.167,292.833 118.5,295.5C 117.833,296.5 117.167,297.5 116.5,298.5C 115.5,298.5 114.5,298.5 113.5,298.5C 113.844,291.228 112.677,284.228 110,277.5C 109.329,276.748 108.496,276.414 107.5,276.5C 106.713,274.896 105.38,274.229 103.5,274.5C 102.341,272.75 100.674,271.75 98.5,271.5C 98.0269,270.094 97.0269,269.427 95.5,269.5C 93.7607,266.757 91.4274,264.757 88.5,263.5C 81.7298,253.582 79.2298,242.582 81,230.5C 81.8993,226.462 83.566,222.795 86,219.5C 87.0537,201.709 96.2204,195.375 113.5,200.5C 115.64,200.556 117.306,201.223 118.5,202.5C 116.973,202.427 115.973,203.094 115.5,204.5C 115.167,205.5 114.5,206.167 113.5,206.5C 111.5,206.5 110.5,207.5 110.5,209.5C 109.833,210.833 109.167,212.167 108.5,213.5C 111.01,218.687 114.676,223.021 119.5,226.5C 119.427,228.027 120.094,229.027 121.5,229.5C 121.69,232.855 122.69,235.855 124.5,238.5C 124.521,245.854 124.187,253.187 123.5,260.5C 121.901,261.799 121.401,263.465 122,265.5C 130.667,260.833 137.333,254.167 142,245.5C 144.907,236.447 143.573,228.114 138,220.5C 137.329,219.748 136.496,219.414 135.5,219.5C 135.027,218.094 134.027,217.427 132.5,217.5C 131.817,215.824 130.483,215.157 128.5,215.5C 128.082,214.778 127.416,214.278 126.5,214C 133.362,209.371 140.195,209.538 147,214.5C 145.767,207.434 142.267,201.767 136.5,197.5C 135.415,195.413 133.749,194.08 131.5,193.5C 130.508,193.672 129.842,193.338 129.5,192.5C 128.713,190.896 127.38,190.229 125.5,190.5C 124.365,188.787 122.698,188.12 120.5,188.5C 105.934,186.41 92.6002,189.576 80.5,198C 72.6915,205.833 68.3582,214.667 67.5,224.5C 63.264,218.961 61.0974,212.628 61,205.5C 60.2086,206.745 59.7086,208.078 59.5,209.5C 54.9784,213.365 50.4784,217.365 46,221.5C 45.1553,223.611 44.322,225.611 43.5,227.5C 42.6981,228.952 42.1981,230.618 42,232.5C 30.7069,211.507 34.8736,194.34 54.5,181C 53.255,180.209 51.9217,179.709 50.5,179.5C 49.119,177.726 49.4523,176.226 51.5,175C 63.1874,168.109 75.854,165.109 89.5,166C 88.9558,165.283 88.2891,164.783 87.5,164.5C 81.9648,155.998 79.7981,146.664 81,136.5C 88.9892,110.875 106.489,99.0419 133.5,101C 145.954,103.399 157.288,108.232 167.5,115.5 Z M 75.5,181.5 C 74.2196,182.931 72.5529,183.598 70.5,183.5C 71.7804,182.069 73.4471,181.402 75.5,181.5 Z M 98.5,205.5 C 101.167,206.167 101.167,206.833 98.5,207.5C 98.5,206.833 98.5,206.167 98.5,205.5 Z"/></g>
<g><path style="opacity:0.05" fill="#05050c" d="M 109.5,113.5 C 109.435,113.938 109.601,114.272 110,114.5C 110.71,113.027 111.876,112.36 113.5,112.5C 119.844,111.056 126.177,111.556 132.5,114C 116.898,111.534 103.731,116.034 93,127.5C 96.3953,120.623 101.895,115.956 109.5,113.5 Z"/></g>
<g><path style="opacity:0.051" fill="#010103" d="M 167.5,115.5 C 169.552,116.053 169.885,117.053 168.5,118.5C 168.443,117.391 168.11,116.391 167.5,115.5 Z"/></g>
<g><path style="opacity:0.01" fill="#04040c" d="M 146.5,120.5 C 145.167,120.5 144.5,121.167 144.5,122.5C 140.477,118.164 141.144,117.497 146.5,120.5 Z"/></g>
<g><path style="opacity:0.878" fill="#171828" d="M 166.5,119.5 C 163.135,121.039 159.469,121.706 155.5,121.5C 152.645,121.497 149.978,121.164 147.5,120.5C 153.857,120.524 160.19,120.19 166.5,119.5 Z"/></g>
<g><path style="opacity:0.831" fill="#11111c" d="M 144.5,122.5 C 145.931,123.78 146.598,125.447 146.5,127.5C 144.787,126.365 144.12,124.698 144.5,122.5 Z"/></g>
<g><path style="opacity:0.999" fill="#23253f" d="M 44.5,131.5 C 45.4682,133.607 45.8016,135.941 45.5,138.5C 45.369,139.239 45.5357,139.906 46,140.5C 49.4657,139.283 52.9657,139.283 56.5,140.5C 56.427,142.027 57.0937,143.027 58.5,143.5C 59.8333,145.5 59.8333,147.5 58.5,149.5C 57.9569,149.56 57.6236,149.893 57.5,150.5C 61.2682,151.14 64.6015,152.64 67.5,155C 66.5842,155.278 65.9175,155.778 65.5,156.5C 56.4903,161.999 48.4903,168.832 41.5,177C 37.7646,178.406 34.0979,178.906 30.5,178.5C 24.233,190.5 22.233,203.167 24.5,216.5C 24.0535,219.01 24.7202,221.01 26.5,222.5C 28.4383,226.043 30.1049,229.71 31.5,233.5C 31.427,235.027 32.0937,236.027 33.5,236.5C 33.427,238.027 34.0937,239.027 35.5,239.5C 36.0798,241.749 37.4131,243.415 39.5,244.5C 39.7496,245.922 40.583,246.922 42,247.5C 44.8333,242 49,237.833 54.5,235C 57.6965,234.195 60.6965,234.362 63.5,235.5C 63.3404,237.153 62.6737,238.486 61.5,239.5C 60.8826,239.611 60.3826,239.944 60,240.5C 59.1925,244.027 59.3592,247.36 60.5,250.5C 60.5,250.833 60.5,251.167 60.5,251.5C 60.1201,253.698 60.7868,255.365 62.5,256.5C 62.427,258.027 63.0937,259.027 64.5,259.5C 66.5769,262.904 69.5769,265.404 73.5,267C 79.3843,268.82 85.3843,270.153 91.5,271C 96.3343,274.252 101.334,277.252 106.5,280C 105.263,280.232 104.263,280.732 103.5,281.5C 97.4787,282.726 91.4787,282.726 85.5,281.5C 80.7498,279.969 75.7498,279.302 70.5,279.5C 68.5853,279.784 66.9187,279.451 65.5,278.5C 62.2006,276.517 58.5339,275.517 54.5,275.5C 52.8243,273.166 50.491,272.166 47.5,272.5C 44.5152,271.674 41.8485,270.341 39.5,268.5C 39.0269,267.094 38.0269,266.427 36.5,266.5C 36.0269,265.094 35.0269,264.427 33.5,264.5C 32.7377,262.738 31.4044,261.738 29.5,261.5C 28.5,261.167 27.8333,260.5 27.5,259.5C 26.5,257.833 25.1667,256.5 23.5,255.5C 22.5,255.167 21.8333,254.5 21.5,253.5C 21.2624,251.596 20.2624,250.262 18.5,249.5C 18.573,247.973 17.9063,246.973 16.5,246.5C 16.573,244.973 15.9063,243.973 14.5,243.5C 13.3263,242.486 12.6596,241.153 12.5,239.5C 12.5979,237.447 11.9313,235.78 10.5,234.5C 9.26162,232.786 8.59495,230.786 8.5,228.5C 8.57968,225.219 7.91301,222.219 6.5,219.5C 5.79663,211.175 5.12997,202.842 4.5,194.5C 8.02604,195.69 11.026,197.69 13.5,200.5C 14.412,202.595 15.5787,204.595 17,206.5C 17.3741,200.42 18.2074,194.42 19.5,188.5C 20.9313,187.22 21.5979,185.553 21.5,183.5C 23.3924,180.724 25.0591,177.724 26.5,174.5C 26.3764,173.893 26.0431,173.56 25.5,173.5C 25.573,171.973 24.9063,170.973 23.5,170.5C 22.7564,166.881 22.423,163.215 22.5,159.5C 23.9063,159.027 24.573,158.027 24.5,156.5C 29.9242,151.989 33.5908,146.322 35.5,139.5C 37.6083,136.034 39.4416,132.367 41,128.5C 42.0391,129.71 43.2058,130.71 44.5,131.5 Z"/></g>
<g><path style="opacity:0.129" fill="#050507" d="M 125.5,128.5 C 127.027,128.427 128.027,129.094 128.5,130.5C 126.973,130.573 125.973,129.906 125.5,128.5 Z"/></g>
<g><path style="opacity:0.016" fill="#030308" d="M 44.5,131.5 C 43.2058,130.71 42.0391,129.71 41,128.5C 39.4416,132.367 37.6083,136.034 35.5,139.5C 36.4641,134.767 38.2975,130.434 41,126.5C 42.8022,127.789 43.9688,129.456 44.5,131.5 Z"/></g>
<g><path style="opacity:0.999" fill="#232540" d="M 175.5,132.5 C 175.5,134.833 175.5,137.167 175.5,139.5C 175.157,141.483 175.824,142.817 177.5,143.5C 177.157,145.483 177.824,146.817 179.5,147.5C 181.085,152.678 181.752,158.012 181.5,163.5C 181.672,164.492 181.338,165.158 180.5,165.5C 179.147,167.128 179.481,168.462 181.5,169.5C 182.338,169.842 182.672,170.508 182.5,171.5C 182.427,173.027 183.094,174.027 184.5,174.5C 184.12,176.698 184.787,178.365 186.5,179.5C 186.294,182.495 186.96,185.162 188.5,187.5C 189.904,192.599 190.571,197.932 190.5,203.5C 190.08,211.194 189.413,218.861 188.5,226.5C 188.167,226.5 187.833,226.5 187.5,226.5C 186.049,230.313 185.216,234.313 185,238.5C 194.071,220.172 197.238,200.839 194.5,180.5C 194.585,178.667 195.252,177.334 196.5,176.5C 196.528,179.916 197.528,182.916 199.5,185.5C 200.048,187.626 200.715,189.626 201.5,191.5C 201.5,200.833 201.5,210.167 201.5,219.5C 200.778,219.918 200.278,220.584 200,221.5C 199.503,224.146 199.336,226.813 199.5,229.5C 198.347,236.802 195.347,243.136 190.5,248.5C 189.094,248.973 188.427,249.973 188.5,251.5C 186.167,254.5 183.5,257.167 180.5,259.5C 178.973,259.427 177.973,260.094 177.5,261.5C 172.823,265.509 167.489,268.509 161.5,270.5C 156.482,270.288 152.149,271.621 148.5,274.5C 148.167,274.5 147.833,274.5 147.5,274.5C 144.615,274.806 141.948,274.473 139.5,273.5C 165.125,254.812 174.292,229.812 167,198.5C 162.41,187.624 155.243,178.957 145.5,172.5C 144.738,170.738 143.404,169.738 141.5,169.5C 139.922,167.682 140.422,166.682 143,166.5C 151.142,168.155 158.642,171.321 165.5,176C 169.369,180.037 173.369,183.87 177.5,187.5C 177.427,189.027 178.094,190.027 179.5,190.5C 179.427,192.027 180.094,193.027 181.5,193.5C 181.795,195.423 182.628,197.09 184,198.5C 184.647,187.44 181.48,177.607 174.5,169C 171.173,168.39 167.839,167.89 164.5,167.5C 160.455,163.62 156.955,159.287 154,154.5C 153.329,153.748 152.496,153.414 151.5,153.5C 150.508,153.672 149.842,153.338 149.5,152.5C 145.725,151.077 145.725,149.244 149.5,147C 151.134,146.506 152.801,146.34 154.5,146.5C 154.251,143.998 153.917,141.498 153.5,139C 153.333,133.833 155.833,131.333 161,131.5C 163.814,131.408 166.147,132.408 168,134.5C 169.9,130.294 172.4,129.627 175.5,132.5 Z"/></g>
<g><path style="opacity:0.055" fill="#020205" d="M 101.5,132.5 C 104.929,132.546 108.596,132.712 112.5,133C 115.309,133.312 116.976,134.812 117.5,137.5C 111.621,132.591 105.454,132.258 99,136.5C 98.7207,134.588 99.5541,133.254 101.5,132.5 Z"/></g>
<g><path style="opacity:0.102" fill="#03030a" d="M 128.5,130.5 C 130.173,131.343 131.34,132.676 132,134.5C 133.035,141.434 132.201,148.101 129.5,154.5C 130.833,154.5 132.167,154.5 133.5,154.5C 132.081,155.451 130.415,155.784 128.5,155.5C 129.283,150.477 130.283,145.477 131.5,140.5C 131.107,136.913 130.107,133.58 128.5,130.5 Z"/></g>
<g><path style="opacity:0.102" fill="#04050d" d="M 56.5,140.5 C 52.9657,139.283 49.4657,139.283 46,140.5C 45.5357,139.906 45.369,139.239 45.5,138.5C 47.3417,138.277 49.175,137.943 51,137.5C 53.3987,137.613 55.2321,138.613 56.5,140.5 Z"/></g>
<g><path style="opacity:0.039" fill="#030307" d="M 59.5,129.5 C 61.4798,134.47 63.8131,139.47 66.5,144.5C 62.3094,140.448 59.9761,135.448 59.5,129.5 Z"/></g>
<g><path style="opacity:0.214" fill="#04040a" d="M 175.5,132.5 C 172.4,129.627 169.9,130.294 168,134.5C 166.147,132.408 163.814,131.408 161,131.5C 155.833,131.333 153.333,133.833 153.5,139C 153.917,141.498 154.251,143.998 154.5,146.5C 152.801,146.34 151.134,146.506 149.5,147C 145.725,149.244 145.725,151.077 149.5,152.5C 148.167,152.5 146.833,152.5 145.5,152.5C 145.5,147.833 147.833,145.5 152.5,145.5C 149.771,132.726 154.605,128.059 167,131.5C 169.886,129.775 173.052,129.108 176.5,129.5C 176.737,130.791 176.404,131.791 175.5,132.5 Z"/></g>
<g><path style="opacity:0.373" fill="#0d0c17" d="M 56.5,140.5 C 57.9063,140.973 58.573,141.973 58.5,143.5C 57.0937,143.027 56.427,142.027 56.5,140.5 Z"/></g>
<g><path style="opacity:0.843" fill="#13131d" d="M 175.5,139.5 C 176.674,140.514 177.34,141.847 177.5,143.5C 175.824,142.817 175.157,141.483 175.5,139.5 Z"/></g>
<g><path style="opacity:0.05" fill="#07070e" d="M 106.5,142.5 C 108.017,142.511 109.184,143.177 110,144.5C 110.122,146.437 110.955,147.77 112.5,148.5C 111.432,149.434 110.099,149.768 108.5,149.5C 108.834,146.812 108.168,144.479 106.5,142.5 Z"/></g>
<g><path style="opacity:0.008" fill="#05040b" d="M 66.5,144.5 C 68.5869,145.585 69.9202,147.251 70.5,149.5C 68.4131,148.415 67.0798,146.749 66.5,144.5 Z"/></g>
<g><path style="opacity:0.882" fill="#131420" d="M 177.5,143.5 C 178.674,144.514 179.34,145.847 179.5,147.5C 177.824,146.817 177.157,145.483 177.5,143.5 Z"/></g>
<g><path style="opacity:0.224" fill="#06060c" d="M 35.5,139.5 C 33.5908,146.322 29.9242,151.989 24.5,156.5C 28.4188,150.995 32.0855,145.329 35.5,139.5 Z"/></g>
<g><path style="opacity:0.667" fill="#131422" d="M 74.5,138.5 C 74.8266,143.214 74.4933,147.88 73.5,152.5C 72.1451,151.812 71.1451,150.812 70.5,149.5C 71.4959,149.414 72.3292,149.748 73,150.5C 73.1762,146.312 73.6762,142.312 74.5,138.5 Z"/></g>
<g><path style="opacity:0.855" fill="#13131f" d="M 179.5,147.5 C 180.793,148.842 181.626,150.509 182,152.5C 182.81,156.358 182.643,160.024 181.5,163.5C 181.752,158.012 181.085,152.678 179.5,147.5 Z"/></g>
<g><path style="opacity:0.031" fill="#07070e" d="M 58.5,149.5 C 61.0826,150.224 63.7493,151.057 66.5,152C 68.0368,153.11 68.7035,154.61 68.5,156.5C 67.5,156.5 66.5,156.5 65.5,156.5C 65.9175,155.778 66.5842,155.278 67.5,155C 64.6015,152.64 61.2682,151.14 57.5,150.5C 57.6236,149.893 57.9569,149.56 58.5,149.5 Z"/></g>
<g><path style="opacity:0.09" fill="#02020c" d="M 24.5,156.5 C 24.573,158.027 23.9063,159.027 22.5,159.5C 22.427,157.973 23.0937,156.973 24.5,156.5 Z"/></g>
<g><path style="opacity:0.025" fill="#05050b" d="M 123.5,152.5 C 123.5,151.5 123.5,150.5 123.5,149.5C 110.394,150.407 106.061,156.907 110.5,169C 110,169.167 109.5,169.333 109,169.5C 101.596,167.26 96.7629,162.593 94.5,155.5C 97.4527,160.617 101.619,164.617 107,167.5C 105.587,154.739 111.421,148.406 124.5,148.5C 124.768,150.099 124.434,151.432 123.5,152.5 Z"/></g>
<g><path style="opacity:0.184" fill="#06060e" d="M 151.5,153.5 C 152.496,153.414 153.329,153.748 154,154.5C 156.955,159.287 160.455,163.62 164.5,167.5C 158.808,164.132 154.475,159.466 151.5,153.5 Z"/></g>
<g><path style="opacity:0.234" fill="#040408" d="M 22.5,159.5 C 22.423,163.215 22.7564,166.881 23.5,170.5C 20.6464,166.861 20.3131,163.194 22.5,159.5 Z"/></g>
<g><path style="opacity:0.02" fill="#020205" d="M 180.5,165.5 C 180.833,166.833 181.167,168.167 181.5,169.5C 179.481,168.462 179.147,167.128 180.5,165.5 Z"/></g>
<g><path style="opacity:0.118" fill="#05050c" d="M 123.5,162.5 C 128.792,166.818 134.459,170.652 140.5,174C 142.373,175.704 144.04,177.537 145.5,179.5C 139.566,174.857 133.233,170.69 126.5,167C 124.859,165.871 123.859,164.371 123.5,162.5 Z"/></g>
<g><path style="opacity:0.045" fill="#05050a" d="M 87.5,164.5 C 88.2891,164.783 88.9558,165.283 89.5,166C 75.854,165.109 63.1874,168.109 51.5,175C 49.4523,176.226 49.119,177.726 50.5,179.5C 48.3141,179.489 47.4808,178.489 48,176.5C 54.3937,170.721 61.8937,167.221 70.5,166C 76.3482,165.827 82.0149,165.327 87.5,164.5 Z"/></g>
<g><path style="opacity:0.271" fill="#08070e" d="M 141.5,169.5 C 143.404,169.738 144.738,170.738 145.5,172.5C 143.596,172.262 142.262,171.262 141.5,169.5 Z"/></g>
<g><path style="opacity:0.047" fill="#080810" d="M 164.5,167.5 C 167.839,167.89 171.173,168.39 174.5,169C 181.48,177.607 184.647,187.44 184,198.5C 182.628,197.09 181.795,195.423 181.5,193.5C 181.968,184.864 179.301,177.031 173.5,170C 170.203,169.796 167.203,168.963 164.5,167.5 Z"/></g>
<g><path style="opacity:0.008" fill="#040409" d="M 23.5,170.5 C 24.9063,170.973 25.573,171.973 25.5,173.5C 24.0937,173.027 23.427,172.027 23.5,170.5 Z"/></g>
<g><path style="opacity:0.11" fill="#03030c" d="M 182.5,171.5 C 183.906,171.973 184.573,172.973 184.5,174.5C 183.094,174.027 182.427,173.027 182.5,171.5 Z"/></g>
<g><path style="opacity:0.045" fill="#05050c" d="M 177.5,187.5 C 173.369,183.87 169.369,180.037 165.5,176C 158.642,171.321 151.142,168.155 143,166.5C 140.422,166.682 139.922,167.682 141.5,169.5C 138.827,169.316 138.16,168.149 139.5,166C 155.83,166.666 168.497,173.832 177.5,187.5 Z"/></g>
<g><path style="opacity:0.027" fill="#020206" d="M 25.5,173.5 C 26.0431,173.56 26.3764,173.893 26.5,174.5C 25.0591,177.724 23.3924,180.724 21.5,183.5C 22.2759,179.948 23.6092,176.614 25.5,173.5 Z"/></g>
<g><path style="opacity:0.153" fill="#05050c" d="M 57.5,190.5 C 57.8333,191.833 58.1667,191.833 58.5,190.5C 59.1667,190.5 59.5,190.167 59.5,189.5C 60.4916,189.672 61.1583,189.338 61.5,188.5C 62.1667,188.5 62.5,188.167 62.5,187.5C 63.4916,187.672 64.1583,187.338 64.5,186.5C 65.4916,186.672 66.1583,186.338 66.5,185.5C 67.4916,185.672 68.1583,185.338 68.5,184.5C 69.4916,184.672 70.1583,184.338 70.5,183.5C 72.5529,183.598 74.2196,182.931 75.5,181.5C 77.099,181.768 78.4324,181.434 79.5,180.5C 82.517,180.444 82.8503,180.11 80.5,179.5C 81.5676,178.566 82.901,178.232 84.5,178.5C 84.56,179.043 84.8933,179.376 85.5,179.5C 88.3004,178.268 91.3004,177.601 94.5,177.5C 97.1667,177.667 99.8333,177.833 102.5,178C 81.9708,178.723 64.4708,186.223 50,200.5C 51.0434,196.262 53.5434,192.928 57.5,190.5 Z"/></g>
<g><path style="opacity:0.761" fill="#10101b" d="M 184.5,174.5 C 185.537,175.93 186.204,177.597 186.5,179.5C 184.787,178.365 184.12,176.698 184.5,174.5 Z"/></g>
<g><path style="opacity:0.741" fill="#0f0f19" d="M 196.5,176.5 C 198.072,179.215 199.072,182.215 199.5,185.5C 197.528,182.916 196.528,179.916 196.5,176.5 Z"/></g>
<g><path style="opacity:0.596" fill="#0b0b15" d="M 145.5,179.5 C 148.903,181.9 151.57,184.9 153.5,188.5C 150.097,186.1 147.43,183.1 145.5,179.5 Z"/></g>
<g><path style="opacity:0.796" fill="#13131e" d="M 186.5,179.5 C 187.768,181.905 188.435,184.572 188.5,187.5C 186.96,185.162 186.294,182.495 186.5,179.5 Z"/></g>
<g><path style="opacity:0.016" fill="#020205" d="M 21.5,183.5 C 21.5979,185.553 20.9313,187.22 19.5,188.5C 19.4021,186.447 20.0687,184.78 21.5,183.5 Z"/></g>
<g><path style="opacity:0.702" fill="#100f19" d="M 120.5,188.5 C 122.698,188.12 124.365,188.787 125.5,190.5C 123.597,190.204 121.93,189.537 120.5,188.5 Z"/></g>
<g><path style="opacity:0.188" fill="#05050b" d="M 177.5,187.5 C 178.906,187.973 179.573,188.973 179.5,190.5C 178.094,190.027 177.427,189.027 177.5,187.5 Z"/></g>
<g><path style="opacity:0.231" fill="#07080e" d="M 153.5,188.5 C 154.906,188.973 155.573,189.973 155.5,191.5C 154.094,191.027 153.427,190.027 153.5,188.5 Z"/></g>
<g><path style="opacity:0.11" fill="#010109" d="M 125.5,190.5 C 127.38,190.229 128.713,190.896 129.5,192.5C 127.847,192.34 126.514,191.674 125.5,190.5 Z"/></g>
<g><path style="opacity:0.145" fill="#06060a" d="M 179.5,190.5 C 180.906,190.973 181.573,191.973 181.5,193.5C 180.094,193.027 179.427,192.027 179.5,190.5 Z"/></g>
<g><path style="opacity:0.188" fill="#06060e" d="M 155.5,191.5 C 156.906,191.973 157.573,192.973 157.5,194.5C 156.094,194.027 155.427,193.027 155.5,191.5 Z"/></g>
<g><path style="opacity:0.012" fill="#040509" d="M 13.5,200.5 C 11.026,197.69 8.02604,195.69 4.5,194.5C 4.36899,193.761 4.53566,193.094 5,192.5C 9.01154,194.014 11.8449,196.681 13.5,200.5 Z"/></g>
<g><path style="opacity:0.032" fill="#020206" d="M 19.5,188.5 C 18.2074,194.42 17.3741,200.42 17,206.5C 15.5787,204.595 14.412,202.595 13.5,200.5C 14.4584,200.953 15.2917,201.619 16,202.5C 16.254,197.484 17.4206,192.817 19.5,188.5 Z"/></g>
<g><path style="opacity:0.145" fill="#040408" d="M 131.5,193.5 C 133.749,194.08 135.415,195.413 136.5,197.5C 134.251,196.92 132.585,195.587 131.5,193.5 Z"/></g>
<g><path style="opacity:0.035" fill="#030307" d="M 118.5,202.5 C 117.306,201.223 115.64,200.556 113.5,200.5C 96.2204,195.375 87.0537,201.709 86,219.5C 83.566,222.795 81.8993,226.462 81,230.5C 79.2298,242.582 81.7298,253.582 88.5,263.5C 84.1483,259.474 81.315,254.474 80,248.5C 79.3333,242.167 79.3333,235.833 80,229.5C 80.8993,225.462 82.566,221.795 85,218.5C 84.7711,211.178 87.2711,205.012 92.5,200C 94.087,199.138 95.7536,198.471 97.5,198C 105.178,198.056 112.844,198.556 120.5,199.5C 120.715,201.179 120.048,202.179 118.5,202.5 Z"/></g>
<g><path style="opacity:0.004" fill="#05050d" d="M 118.5,202.5 C 118.027,203.906 117.027,204.573 115.5,204.5C 115.973,203.094 116.973,202.427 118.5,202.5 Z"/></g>
<g><path style="opacity:0.733" fill="#12111d" d="M 160.5,200.5 C 161.924,202.515 162.59,204.848 162.5,207.5C 161.076,205.485 160.41,203.152 160.5,200.5 Z"/></g>
<g><path style="opacity:0.016" fill="#030408" d="M 50.5,179.5 C 51.9217,179.709 53.255,180.209 54.5,181C 34.8736,194.34 30.7069,211.507 42,232.5C 42.1981,230.618 42.6981,228.952 43.5,227.5C 43.5,229.5 43.5,231.5 43.5,233.5C 42.325,233.719 41.325,233.386 40.5,232.5C 29.8668,212.207 33.5335,195.04 51.5,181C 50.944,180.617 50.6107,180.117 50.5,179.5 Z"/></g>
<g><path style="opacity:0.02" fill="#04050a" d="M 98.5,205.5 C 100.093,204.133 101.426,204.466 102.5,206.5C 101.426,208.534 100.093,208.867 98.5,207.5C 101.167,206.833 101.167,206.167 98.5,205.5 Z"/></g>
<g><path style="opacity:0.035" fill="#030307" d="M 67.5,224.5 C 65.3763,223.969 63.8763,222.635 63,220.5C 61.4075,216.839 60.2408,213.172 59.5,209.5C 59.7086,208.078 60.2086,206.745 61,205.5C 61.0974,212.628 63.264,218.961 67.5,224.5 Z"/></g>
<g><path style="opacity:0.008" fill="#05050c" d="M 113.5,206.5 C 112.833,207.833 111.833,208.833 110.5,209.5C 110.5,207.5 111.5,206.5 113.5,206.5 Z"/></g>
<g><path style="opacity:0.048" fill="#06060c" d="M 136.5,197.5 C 142.267,201.767 145.767,207.434 147,214.5C 140.195,209.538 133.362,209.371 126.5,214C 127.416,214.278 128.082,214.778 128.5,215.5C 126.654,215.778 125.32,215.111 124.5,213.5C 126.336,212.081 128.336,210.914 130.5,210C 135.338,209.646 140.005,209.48 144.5,209.5C 142.2,205.21 139.533,201.21 136.5,197.5 Z"/></g>
<g><path style="opacity:0.796" fill="#11101b" d="M 128.5,215.5 C 130.483,215.157 131.817,215.824 132.5,217.5C 130.847,217.34 129.514,216.674 128.5,215.5 Z"/></g>
<g><path style="opacity:0.18" fill="#04040a" d="M 108.5,213.5 C 112.536,217.534 116.202,221.868 119.5,226.5C 114.676,223.021 111.01,218.687 108.5,213.5 Z"/></g>
<g><path style="opacity:0.224" fill="#030307" d="M 132.5,217.5 C 134.027,217.427 135.027,218.094 135.5,219.5C 133.973,219.573 132.973,218.906 132.5,217.5 Z"/></g>
<g><path style="opacity:0.043" fill="#06060d" d="M 196.5,176.5 C 195.252,177.334 194.585,178.667 194.5,180.5C 197.238,200.839 194.071,220.172 185,238.5C 185.216,234.313 186.049,230.313 187.5,226.5C 187.833,229.167 188.167,229.167 188.5,226.5C 190.755,221.155 192.255,215.488 193,209.5C 193.333,198.167 193.667,186.833 194,175.5C 195.159,174.434 195.992,174.767 196.5,176.5 Z"/></g>
<g><path style="opacity:0.875" fill="#13131f" d="M 24.5,216.5 C 25.4582,218.302 26.1249,220.302 26.5,222.5C 24.7202,221.01 24.0535,219.01 24.5,216.5 Z"/></g>
<g><path style="opacity:0.896" fill="#151624" d="M 201.5,219.5 C 201.5,221.5 201.5,223.5 201.5,225.5C 200.833,226.833 200.167,228.167 199.5,229.5C 199.336,226.813 199.503,224.146 200,221.5C 200.278,220.584 200.778,219.918 201.5,219.5 Z"/></g>
<g><path style="opacity:0.01" fill="#08070f" d="M 6.5,219.5 C 7.91301,222.219 8.57968,225.219 8.5,228.5C 7.08699,225.781 6.42032,222.781 6.5,219.5 Z"/></g>
<g><path style="opacity:0.192" fill="#06060e" d="M 119.5,226.5 C 120.906,226.973 121.573,227.973 121.5,229.5C 120.094,229.027 119.427,228.027 119.5,226.5 Z"/></g>
<g><path style="opacity:0.04" fill="#05050c" d="M 135.5,219.5 C 136.496,219.414 137.329,219.748 138,220.5C 143.573,228.114 144.907,236.447 142,245.5C 137.333,254.167 130.667,260.833 122,265.5C 121.401,263.465 121.901,261.799 123.5,260.5C 123.369,261.239 123.536,261.906 124,262.5C 131.384,258.116 137.051,252.116 141,244.5C 143.008,235.187 141.175,226.853 135.5,219.5 Z"/></g>
<g><path style="opacity:0.886" fill="#13131f" d="M 121.5,229.5 C 123.472,232.084 124.472,235.084 124.5,238.5C 122.69,235.855 121.69,232.855 121.5,229.5 Z"/></g>
<g><path style="opacity:0.11" fill="#06060d" d="M 63.5,235.5 C 60.6965,234.362 57.6965,234.195 54.5,235C 49,237.833 44.8333,242 42,247.5C 40.583,246.922 39.7496,245.922 39.5,244.5C 40.1499,244.804 40.8165,245.137 41.5,245.5C 46.3552,236.238 54.0219,231.905 64.5,232.5C 64.7373,233.791 64.404,234.791 63.5,235.5 Z"/></g>
<g><path style="opacity:0.037" fill="#06060c" d="M 10.5,234.5 C 11.9313,235.78 12.5979,237.447 12.5,239.5C 11.0687,238.22 10.4021,236.553 10.5,234.5 Z"/></g>
<g><path style="opacity:0.122" fill="#03030a" d="M 31.5,233.5 C 32.9063,233.973 33.573,234.973 33.5,236.5C 32.0937,236.027 31.427,235.027 31.5,233.5 Z"/></g>
<g><path style="opacity:0.161" fill="#05050b" d="M 33.5,236.5 C 34.9063,236.973 35.573,237.973 35.5,239.5C 34.0937,239.027 33.427,238.027 33.5,236.5 Z"/></g>
<g><path style="opacity:0.925" fill="#161828" d="M 61.5,239.5 C 60.7564,243.119 60.423,246.785 60.5,250.5C 59.3592,247.36 59.1925,244.027 60,240.5C 60.3826,239.944 60.8826,239.611 61.5,239.5 Z"/></g>
<g><path style="opacity:0.224" fill="#06060c" d="M 35.5,239.5 C 37.5869,240.585 38.9202,242.251 39.5,244.5C 37.4131,243.415 36.0798,241.749 35.5,239.5 Z"/></g>
<g><path style="opacity:0.004" fill="#030509" d="M 14.5,243.5 C 15.9063,243.973 16.573,244.973 16.5,246.5C 15.0937,246.027 14.427,245.027 14.5,243.5 Z"/></g>
<g><path style="opacity:0.766" fill="#161726" d="M 124.5,238.5 C 125.165,241.314 125.498,244.314 125.5,247.5C 125.684,252.107 125.017,256.44 123.5,260.5C 124.187,253.187 124.521,245.854 124.5,238.5 Z"/></g>
<g><path style="opacity:0.004" fill="#06060c" d="M 16.5,246.5 C 17.9063,246.973 18.573,247.973 18.5,249.5C 17.0937,249.027 16.427,248.027 16.5,246.5 Z"/></g>
<g><path style="opacity:0.004" fill="#06060d" d="M 190.5,248.5 C 190.573,250.027 189.906,251.027 188.5,251.5C 188.427,249.973 189.094,248.973 190.5,248.5 Z"/></g>
<g><path style="opacity:0.004" fill="#06060d" d="M 18.5,249.5 C 20.2624,250.262 21.2624,251.596 21.5,253.5C 19.7376,252.738 18.7376,251.404 18.5,249.5 Z"/></g>
<g><path style="opacity:0.765" fill="#11111c" d="M 60.5,251.5 C 61.5375,252.93 62.2041,254.597 62.5,256.5C 60.7868,255.365 60.1201,253.698 60.5,251.5 Z"/></g>
<g><path style="opacity:0.176" fill="#04050b" d="M 145.5,172.5 C 155.243,178.957 162.41,187.624 167,198.5C 174.292,229.812 165.125,254.812 139.5,273.5C 138.711,273.783 138.044,274.283 137.5,275C 138.793,275.49 140.127,275.657 141.5,275.5C 139.735,276.461 137.735,276.795 135.5,276.5C 135.351,275.448 135.517,274.448 136,273.5C 159.711,258.409 170.378,236.743 168,208.5C 166.446,199.495 162.78,191.495 157,184.5C 152.963,180.631 149.13,176.631 145.5,172.5 Z"/></g>
<g><path style="opacity:0.004" fill="#030307" d="M 23.5,255.5 C 25.1667,256.5 26.5,257.833 27.5,259.5C 25.1667,259.167 23.8333,257.833 23.5,255.5 Z"/></g>
<g><path style="opacity:0.161" fill="#05050b" d="M 62.5,256.5 C 63.9063,256.973 64.573,257.973 64.5,259.5C 63.0937,259.027 62.427,258.027 62.5,256.5 Z"/></g>
<g><path style="opacity:0.016" fill="#05050c" d="M 180.5,259.5 C 180.027,260.906 179.027,261.573 177.5,261.5C 177.973,260.094 178.973,259.427 180.5,259.5 Z"/></g>
<g><path style="opacity:0.573" fill="#0c0c15" d="M 29.5,261.5 C 31.4044,261.738 32.7377,262.738 33.5,264.5C 31.5956,264.262 30.2623,263.262 29.5,261.5 Z"/></g>
<g><path style="opacity:0.612" fill="#0c0c15" d="M 88.5,263.5 C 91.4274,264.757 93.7607,266.757 95.5,269.5C 92.5726,268.243 90.2393,266.243 88.5,263.5 Z"/></g>
<g><path style="opacity:0.353" fill="#0c0c15" d="M 33.5,264.5 C 35.0269,264.427 36.0269,265.094 36.5,266.5C 34.9731,266.573 33.9731,265.906 33.5,264.5 Z"/></g>
<g><path style="opacity:0.286" fill="#0a0a13" d="M 36.5,266.5 C 38.0269,266.427 39.0269,267.094 39.5,268.5C 37.9731,268.573 36.9731,267.906 36.5,266.5 Z"/></g>
<g><path style="opacity:0.212" fill="#06070e" d="M 64.5,259.5 C 72.7324,265.637 82.0657,269.137 92.5,270C 95.8597,272.546 99.5264,274.379 103.5,275.5C 104.315,276.837 105.482,277.837 107,278.5C 107.483,279.448 107.649,280.448 107.5,281.5C 106.167,281.5 104.833,281.5 103.5,281.5C 104.263,280.732 105.263,280.232 106.5,280C 101.334,277.252 96.3343,274.252 91.5,271C 85.3843,270.153 79.3843,268.82 73.5,267C 69.5769,265.404 66.5769,262.904 64.5,259.5 Z"/></g>
<g><path style="opacity:0.212" fill="#07080f" d="M 95.5,269.5 C 97.0269,269.427 98.0269,270.094 98.5,271.5C 96.9731,271.573 95.9731,270.906 95.5,269.5 Z"/></g>
<g><path style="opacity:0.004" fill="#04040d" d="M 136.5,269.5 C 136.027,270.906 135.027,271.573 133.5,271.5C 133.973,270.094 134.973,269.427 136.5,269.5 Z"/></g>
<g><path style="opacity:0.808" fill="#151523" d="M 161.5,270.5 C 157.499,272.589 153.165,273.922 148.5,274.5C 152.149,271.621 156.482,270.288 161.5,270.5 Z"/></g>
<g><path style="opacity:0.82" fill="#141420" d="M 47.5,272.5 C 50.491,272.166 52.8243,273.166 54.5,275.5C 51.8427,275.065 49.5093,274.065 47.5,272.5 Z"/></g>
<g><path style="opacity:0.086" fill="#04040e" d="M 98.5,271.5 C 100.674,271.75 102.341,272.75 103.5,274.5C 101.326,274.25 99.6594,273.25 98.5,271.5 Z"/></g>
<g><path style="opacity:0.204" fill="#090914" d="M 129.5,273.5 C 128.713,275.104 127.38,275.771 125.5,275.5C 126.514,274.326 127.847,273.66 129.5,273.5 Z"/></g>
<g><path style="opacity:0.771" fill="#161727" d="M 139.5,273.5 C 141.948,274.473 144.615,274.806 147.5,274.5C 145.735,275.461 143.735,275.795 141.5,275.5C 140.127,275.657 138.793,275.49 137.5,275C 138.044,274.283 138.711,273.783 139.5,273.5 Z"/></g>
<g><path style="opacity:0.773" fill="#11111d" d="M 54.5,275.5 C 58.5339,275.517 62.2006,276.517 65.5,278.5C 61.5732,278.074 57.9065,277.074 54.5,275.5 Z"/></g>
<g><path style="opacity:0.133" fill="#040509" d="M 103.5,275.5 C 103.5,275.167 103.5,274.833 103.5,274.5C 105.38,274.229 106.713,274.896 107.5,276.5C 106.167,276.167 104.833,275.833 103.5,275.5 Z"/></g>
<g><path style="opacity:0.999" fill="#23253f" d="M 177.5,276.5 C 180.167,280.5 180.167,284.5 177.5,288.5C 176.167,289.167 175.167,290.167 174.5,291.5C 170.772,291.795 167.105,292.461 163.5,293.5C 164.325,294.386 165.325,294.719 166.5,294.5C 169.434,295.639 172.1,297.306 174.5,299.5C 176.223,301.78 176.889,304.447 176.5,307.5C 176.66,309.153 177.326,310.486 178.5,311.5C 179.74,316.826 179.74,322.159 178.5,327.5C 174.79,334.698 168.79,338.364 160.5,338.5C 157.361,338.298 154.361,337.631 151.5,336.5C 149.155,333.925 146.155,332.925 142.5,333.5C 140.215,331.882 138.215,329.882 136.5,327.5C 141.467,326.671 146.467,326.171 151.5,326C 158.132,322.903 160.299,317.736 158,310.5C 156.594,307.591 154.428,305.591 151.5,304.5C 145.732,303.043 140.065,303.377 134.5,305.5C 132.973,305.427 131.973,306.094 131.5,307.5C 130.167,309.5 128.5,311.167 126.5,312.5C 124.973,312.427 123.973,313.094 123.5,314.5C 123.5,315.167 123.167,315.5 122.5,315.5C 121.094,315.973 120.427,316.973 120.5,318.5C 118.262,324.776 116.929,331.276 116.5,338C 117.429,348.509 118.429,359.009 119.5,369.5C 119.833,372.833 120.167,376.167 120.5,379.5C 119.92,381.749 118.587,383.415 116.5,384.5C 112.881,385.244 109.215,385.577 105.5,385.5C 104.508,385.672 103.842,385.338 103.5,384.5C 101.548,382.422 100.548,379.922 100.5,377C 106.041,361.42 106.875,345.587 103,329.5C 100.543,323.252 97.5428,317.252 94,311.5C 92.2228,309.21 90.0562,307.543 87.5,306.5C 87.0269,305.094 86.0269,304.427 84.5,304.5C 83.5084,304.672 82.8417,304.338 82.5,303.5C 82.3893,302.883 82.056,302.383 81.5,302C 77.9733,301.192 74.6399,301.359 71.5,302.5C 71.1667,302.5 70.8333,302.5 70.5,302.5C 68.6203,302.229 67.287,302.896 66.5,304.5C 62.6536,308.706 60.987,313.706 61.5,319.5C 61.427,321.027 62.0937,322.027 63.5,322.5C 64.733,324.796 66.733,326.13 69.5,326.5C 74.0937,326.865 78.427,327.865 82.5,329.5C 81.7377,331.262 80.4044,332.262 78.5,332.5C 75.0076,332.446 72.0076,333.446 69.5,335.5C 69.1583,336.338 68.4916,336.672 67.5,336.5C 61.4881,337.67 55.4881,337.67 49.5,336.5C 48.4154,334.413 46.7488,333.08 44.5,332.5C 40.8739,327.446 39.3739,321.779 40,315.5C 42.1957,310.58 44.1957,305.58 46,300.5C 47.7772,298.21 49.9438,296.543 52.5,295.5C 53.766,294.91 55.0993,294.41 56.5,294C 53.3812,292.595 50.0479,292.095 46.5,292.5C 44.5121,290.535 43.0121,288.202 42,285.5C 41.1799,283.272 41.5132,281.272 43,279.5C 47.516,282.117 52.3493,283.951 57.5,285C 66.9612,286.018 76.2946,287.685 85.5,290C 91.0945,292.387 95.9278,295.887 100,300.5C 99.6546,296.461 98.1546,292.794 95.5,289.5C 96.723,288.386 98.0563,288.219 99.5,289C 101.996,290.666 104.329,292.5 106.5,294.5C 106.427,296.027 107.094,297.027 108.5,297.5C 108.111,300.553 108.777,303.22 110.5,305.5C 111.461,307.265 111.795,309.265 111.5,311.5C 111.238,312.978 111.571,314.311 112.5,315.5C 120.72,296.286 135.054,284.286 155.5,279.5C 155.5,281.167 155.5,282.833 155.5,284.5C 154.224,285.386 154.224,286.386 155.5,287.5C 163.066,285.553 169.066,281.387 173.5,275C 175.066,274.7 176.399,275.2 177.5,276.5 Z M 48.5,313.5 C 49.4339,316.656 50.1006,319.989 50.5,323.5C 49.7784,323.082 49.2784,322.416 49,321.5C 48.5026,318.854 48.3359,316.187 48.5,313.5 Z M 168.5,323.5 C 168.5,322.5 168.5,321.5 168.5,320.5C 169.314,318.369 169.814,316.036 170,313.5C 170.167,314.833 170.333,316.167 170.5,317.5C 170.639,319.883 169.972,321.883 168.5,323.5 Z"/></g>
<g><path style="opacity:0.208" fill="#05050a" d="M 123.5,276.5 C 125.127,278.63 126.96,280.63 129,282.5C 129.765,284.066 129.598,285.399 128.5,286.5C 128.649,285.448 128.483,284.448 128,283.5C 125.982,281.65 124.149,279.65 122.5,277.5C 122.624,276.893 122.957,276.56 123.5,276.5 Z"/></g>
<g><path style="opacity:0.604" fill="#121320" d="M 70.5,279.5 C 75.7498,279.302 80.7498,279.969 85.5,281.5C 80.2502,281.698 75.2502,281.031 70.5,279.5 Z"/></g>
<g><path style="opacity:0.161" fill="#06060d" d="M 177.5,276.5 C 176.399,275.2 175.066,274.7 173.5,275C 169.066,281.387 163.066,285.553 155.5,287.5C 154.224,286.386 154.224,285.386 155.5,284.5C 158.698,285.281 161.698,284.447 164.5,282C 168.044,278.625 171.377,275.125 174.5,271.5C 175.952,272.94 176.952,274.606 177.5,276.5 Z"/></g>
<g><path style="opacity:0.004" fill="#04040c" d="M 128.5,286.5 C 128.027,287.906 127.027,288.573 125.5,288.5C 125.973,287.094 126.973,286.427 128.5,286.5 Z"/></g>
<g><path style="opacity:0.043" fill="#06060d" d="M 106.5,294.5 C 104.329,292.5 101.996,290.666 99.5,289C 98.0563,288.219 96.723,288.386 95.5,289.5C 98.1546,292.794 99.6546,296.461 100,300.5C 95.9278,295.887 91.0945,292.387 85.5,290C 76.2946,287.685 66.9612,286.018 57.5,285C 52.3493,283.951 47.516,282.117 43,279.5C 41.5132,281.272 41.1799,283.272 42,285.5C 43.0121,288.202 44.5121,290.535 46.5,292.5C 43.5479,291.641 41.7146,289.641 41,286.5C 40.3333,283.833 40.3333,281.167 41,278.5C 41.414,278.043 41.914,277.709 42.5,277.5C 45.5054,279.671 48.8388,281.171 52.5,282C 62.8467,283.918 73.18,285.918 83.5,288C 88.0285,289.514 92.1952,291.681 96,294.5C 92.8041,286.701 94.9708,284.867 102.5,289C 104.464,290.451 105.797,292.284 106.5,294.5 Z"/></g>
<g><path style="opacity:0.184" fill="#04040a" d="M 155.5,279.5 C 135.054,284.286 120.72,296.286 112.5,315.5C 111.571,314.311 111.238,312.978 111.5,311.5C 115.083,306.069 118.916,300.735 123,295.5C 132.025,287.901 142.192,282.235 153.5,278.5C 154.416,278.543 155.083,278.876 155.5,279.5 Z"/></g>
<g><path style="opacity:0.024" fill="#06060d" d="M 177.5,288.5 C 177.5,290.5 176.5,291.5 174.5,291.5C 175.167,290.167 176.167,289.167 177.5,288.5 Z"/></g>
<g><path style="opacity:0.012" fill="#06060d" d="M 123.5,290.5 C 122.167,292.5 120.5,294.167 118.5,295.5C 119.167,292.833 120.833,291.167 123.5,290.5 Z"/></g>
<g><path style="opacity:0.904" fill="#1b1c31" d="M 46.5,292.5 C 50.0479,292.095 53.3812,292.595 56.5,294C 55.0993,294.41 53.766,294.91 52.5,295.5C 52.1788,293.952 51.1788,293.285 49.5,293.5C 48.209,293.737 47.209,293.404 46.5,292.5 Z"/></g>
<g><path style="opacity:0.796" fill="#191a2e" d="M 174.5,291.5 C 173.22,292.931 171.553,293.598 169.5,293.5C 168.209,293.263 167.209,293.596 166.5,294.5C 165.325,294.719 164.325,294.386 163.5,293.5C 167.105,292.461 170.772,291.795 174.5,291.5 Z"/></g>
<g><path style="opacity:0.097" fill="#05040c" d="M 107.5,276.5 C 108.496,276.414 109.329,276.748 110,277.5C 112.677,284.228 113.844,291.228 113.5,298.5C 114.5,298.5 115.5,298.5 116.5,298.5C 115.745,300.466 114.579,300.8 113,299.5C 112.17,294.857 111.503,290.19 111,285.5C 110.505,282.172 109.338,279.172 107.5,276.5 Z"/></g>
<g><path style="opacity:0.18" fill="#07070e" d="M 169.5,293.5 C 171.883,294.885 173.55,296.885 174.5,299.5C 172.1,297.306 169.434,295.639 166.5,294.5C 167.209,293.596 168.209,293.263 169.5,293.5 Z"/></g>
<g><path style="opacity:0.161" fill="#07070f" d="M 106.5,294.5 C 107.906,294.973 108.573,295.973 108.5,297.5C 107.094,297.027 106.427,296.027 106.5,294.5 Z"/></g>
<g><path style="opacity:0.8" fill="#12131f" d="M 71.5,302.5 C 74.6399,301.359 77.9733,301.192 81.5,302C 82.056,302.383 82.3893,302.883 82.5,303.5C 78.8815,302.756 75.2148,302.423 71.5,302.5 Z"/></g>
<g><path style="opacity:0.008" fill="#07070e" d="M 70.5,302.5 C 69.4863,303.674 68.153,304.34 66.5,304.5C 67.287,302.896 68.6203,302.229 70.5,302.5 Z"/></g>
<g><path style="opacity:0.655" fill="#141422" d="M 108.5,297.5 C 109.768,299.905 110.435,302.572 110.5,305.5C 108.777,303.22 108.111,300.553 108.5,297.5 Z"/></g>
<g><path style="opacity:0.149" fill="#06060a" d="M 84.5,304.5 C 86.0269,304.427 87.0269,305.094 87.5,306.5C 85.9731,306.573 84.9731,305.906 84.5,304.5 Z"/></g>
<g><path style="opacity:0.008" fill="#05050d" d="M 134.5,305.5 C 134.027,306.906 133.027,307.573 131.5,307.5C 131.973,306.094 132.973,305.427 134.5,305.5 Z"/></g>
<g><path style="opacity:0.024" fill="#06060c" d="M 50.5,325.5 C 51.8333,324.833 51.8333,324.167 50.5,323.5C 50.1006,319.989 49.4339,316.656 48.5,313.5C 49.3328,308.912 51.6662,305.745 55.5,304C 47.7014,314.741 49.3681,323.741 60.5,331C 55.8169,331.459 52.4836,329.626 50.5,325.5 Z"/></g>
<g><path style="opacity:0.106" fill="#05060f" d="M 176.5,307.5 C 178.104,308.287 178.771,309.62 178.5,311.5C 177.326,310.486 176.66,309.153 176.5,307.5 Z"/></g>
<g><path style="opacity:0.012" fill="#05050c" d="M 126.5,312.5 C 126.027,313.906 125.027,314.573 123.5,314.5C 123.973,313.094 124.973,312.427 126.5,312.5 Z"/></g>
<g><path style="opacity:0.015" fill="#020305" d="M 49.5,293.5 C 51.1788,293.285 52.1788,293.952 52.5,295.5C 49.9438,296.543 47.7772,298.21 46,300.5C 44.1957,305.58 42.1957,310.58 40,315.5C 39.3739,321.779 40.8739,327.446 44.5,332.5C 38.9836,327.776 37.1503,321.776 39,314.5C 40.9442,310.277 42.6108,305.944 44,301.5C 46.0795,298.935 47.9128,296.268 49.5,293.5 Z"/></g>
<g><path style="opacity:0.066" fill="#07080f" d="M 165.5,326.5 C 165.833,327.833 166.167,327.833 166.5,326.5C 167.167,326.5 167.5,326.167 167.5,325.5C 168.338,325.158 168.672,324.492 168.5,323.5C 169.972,321.883 170.639,319.883 170.5,317.5C 170.333,316.167 170.167,314.833 170,313.5C 169.814,316.036 169.314,318.369 168.5,320.5C 168.5,317.833 168.5,315.167 168.5,312.5C 168.938,312.565 169.272,312.399 169.5,312C 167.299,309.426 165.799,306.593 165,303.5C 173.67,310.986 174.503,319.152 167.5,328C 164.853,330.216 161.853,331.216 158.5,331C 161.202,329.988 163.535,328.488 165.5,326.5 Z"/></g>
<g><path style="opacity:0.004" fill="#06060d" d="M 122.5,315.5 C 122.573,317.027 121.906,318.027 120.5,318.5C 120.427,316.973 121.094,315.973 122.5,315.5 Z"/></g>
<g><path style="opacity:0.553" fill="#131420" d="M 178.5,311.5 C 180.047,313.807 180.713,316.473 180.5,319.5C 180.713,322.527 180.047,325.193 178.5,327.5C 179.74,322.159 179.74,316.826 178.5,311.5 Z"/></g>
<g><path style="opacity:0.173" fill="#05060e" d="M 61.5,319.5 C 62.9063,319.973 63.573,320.973 63.5,322.5C 62.0937,322.027 61.427,321.027 61.5,319.5 Z"/></g>
<g><path style="opacity:0.1" fill="#03040c" d="M 63.5,322.5 C 69.8887,325.556 76.5554,326.223 83.5,324.5C 84.7759,325.614 84.7759,326.614 83.5,327.5C 79.03,326.514 74.3633,326.181 69.5,326.5C 66.733,326.13 64.733,324.796 63.5,322.5 Z"/></g>
<g><path style="opacity:0.25" fill="#06060d" d="M 151.5,304.5 C 154.428,305.591 156.594,307.591 158,310.5C 160.299,317.736 158.132,322.903 151.5,326C 146.467,326.171 141.467,326.671 136.5,327.5C 138.215,329.882 140.215,331.882 142.5,333.5C 138.829,332.671 136.162,330.504 134.5,327C 134.63,325.941 135.13,325.108 136,324.5C 142.587,326.224 148.92,325.557 155,322.5C 158.555,315.646 157.388,309.646 151.5,304.5 Z"/></g>
<g><path style="opacity:0.529" fill="#161728" d="M 69.5,326.5 C 74.3633,326.181 79.03,326.514 83.5,327.5C 83.6716,328.492 83.3382,329.158 82.5,329.5C 78.427,327.865 74.0937,326.865 69.5,326.5 Z"/></g>
<g><path style="opacity:0.408" fill="#100f1a" d="M 78.5,332.5 C 75.8112,334.117 72.8112,335.117 69.5,335.5C 72.0076,333.446 75.0076,332.446 78.5,332.5 Z"/></g>
<g><path style="opacity:0.11" fill="#05060e" d="M 44.5,332.5 C 46.7488,333.08 48.4154,334.413 49.5,336.5C 47.2512,335.92 45.5846,334.587 44.5,332.5 Z"/></g>
<g><path style="opacity:0.122" fill="#05060e" d="M 142.5,333.5 C 146.155,332.925 149.155,333.925 151.5,336.5C 148.443,335.367 145.443,334.367 142.5,333.5 Z"/></g>
<g><path style="opacity:0.706" fill="#131420" d="M 49.5,336.5 C 55.4881,337.67 61.4881,337.67 67.5,336.5C 61.5177,340.492 55.5177,340.492 49.5,336.5 Z"/></g>
<g><path style="opacity:0.033" fill="#030309" d="M 87.5,306.5 C 90.0562,307.543 92.2228,309.21 94,311.5C 97.5428,317.252 100.543,323.252 103,329.5C 106.875,345.587 106.041,361.42 100.5,377C 100.548,379.922 101.548,382.422 103.5,384.5C 100.511,383.059 98.8442,380.559 98.5,377C 107.219,355.926 106.053,335.426 95,315.5C 92.6653,312.335 90.1653,309.335 87.5,306.5 Z"/></g>
<g><path style="opacity:0.314" fill="#0b0c14" d="M 119.5,369.5 C 121.376,372.737 121.71,376.07 120.5,379.5C 120.167,376.167 119.833,372.833 119.5,369.5 Z"/></g>
<g><path style="opacity:0.02" fill="#07070e" d="M 116.5,384.5 C 114.71,385.997 112.544,386.664 110,386.5C 108.293,386.492 106.793,386.158 105.5,385.5C 109.215,385.577 112.881,385.244 116.5,384.5 Z"/></g>
</svg>
