<?xml version="1.0" encoding="UTF-8"?>
<!DOCTYPE svg PUBLIC "-//W3C//DTD SVG 1.1//EN" "http://www.w3.org/Graphics/SVG/1.1/DTD/svg11.dtd">
<svg xmlns="http://www.w3.org/2000/svg" version="1.1" width="918px" height="399px" style="shape-rendering:geometricPrecision; text-rendering:geometricPrecision; image-rendering:optimizeQuality; fill-rule:evenodd; clip-rule:evenodd" xmlns:xlink="http://www.w3.org/1999/xlink">
<g><path style="opacity:0.822" fill="#252743" d="M 108.5,15.5 C 107.833,15.5 107.5,15.8333 107.5,16.5C 106.504,16.4142 105.671,16.7476 105,17.5C 102.844,14.9387 100.677,14.9387 98.5,17.5C 98.5,16.8333 98.1667,16.5 97.5,16.5C 97.5,15.8333 97.1667,15.5 96.5,15.5C 95.7701,14.2876 94.7701,13.2876 93.5,12.5C 95.3939,8.01485 98.2272,4.34818 102,1.5C 106.206,4.04 109.372,7.54 111.5,12C 110.29,13.0391 109.29,14.2058 108.5,15.5 Z"/></g>
<g><path style="opacity:0.824" fill="#252743" d="M 96.5,15.5 C 97.1667,15.5 97.5,15.8333 97.5,16.5C 98.1667,16.5 98.5,16.8333 98.5,17.5C 97.602,20.4662 96.2687,23.2995 94.5,26C 91.4466,26.1578 88.4466,25.6578 85.5,24.5C 84.5614,20.2351 84.2281,15.9017 84.5,11.5C 88.6983,12.2672 92.6983,13.6005 96.5,15.5 Z"/></g>
<g><path style="opacity:0.82" fill="#252743" d="M 107.5,16.5 C 108.167,16.5 108.5,16.1667 108.5,15.5C 112.142,13.2523 116.142,11.9189 120.5,11.5C 120.46,16.1925 120.127,20.8592 119.5,25.5C 116.117,25.2572 112.951,25.9239 110,27.5C 109.063,24.344 107.563,21.5106 105.5,19C 106.381,18.2917 107.047,17.4584 107.5,16.5 Z"/></g>
<g><path style="opacity:0.877" fill="#252743" d="M 101.5,18.5 C 102.496,18.4142 103.329,18.7476 104,19.5C 105.931,23.0405 108.098,26.3738 110.5,29.5C 114.713,28.0886 119.046,27.4219 123.5,27.5C 122.568,39.7273 116.235,47.394 104.5,50.5C 103.92,46.8581 103.42,43.1914 103,39.5C 102.667,46.1667 102.333,52.8333 102,59.5C 100.927,60.2797 99.7604,60.113 98.5,59C 97.1667,56.3333 97.1667,53.6667 98.5,51C 87.9756,46.6474 82.3089,38.814 81.5,27.5C 85.954,27.4219 90.2873,28.0886 94.5,29.5C 96.5943,25.6358 98.9277,21.9692 101.5,18.5 Z"/></g>
<g><path style="opacity:0.824" fill="#252743" d="M 77.5,46.5 C 82.7027,45.1891 86.036,47.0224 87.5,52C 86.0238,57.1382 82.6904,58.8049 77.5,57C 73.7356,53.5598 73.7356,50.0598 77.5,46.5 Z"/></g>
<g><path style="opacity:0.916" fill="#252743" d="M 123.5,50.5 C 129.206,50.1712 134.872,50.5046 140.5,51.5C 132.033,55.9751 127.033,62.9751 125.5,72.5C 125.847,75.5277 127.014,78.1944 129,80.5C 130.149,66.4328 137.149,62.0995 150,67.5C 153.489,72.2054 153.323,76.7054 149.5,81C 144.821,83.7358 142.321,82.5691 142,77.5C 144.078,75.6153 146.245,74.9486 148.5,75.5C 144.916,68.9944 141.082,68.9944 137,75.5C 136.125,83.2196 139.625,87.3863 147.5,88C 151.848,88.4155 156.181,88.2488 160.5,87.5C 160.452,91.8131 159.285,95.8131 157,99.5C 156.196,100.804 155.029,101.471 153.5,101.5C 138.366,94.9034 122.866,93.9034 107,98.5C 98.7551,98.2027 91.7551,95.2027 86,89.5C 84,84.8333 82,80.1667 80,75.5C 77.2217,72.1929 73.7217,70.0262 69.5,69C 76.1789,66.0772 83.0122,63.5772 90,61.5C 95.3016,61.3149 98.9682,63.6482 101,68.5C 102.267,64.1308 104.433,60.2975 107.5,57C 112.566,53.9285 117.9,51.7618 123.5,50.5 Z M 88.5,68.5 C 91.1247,69.4657 91.1247,70.4657 88.5,71.5C 87.4376,70.5754 87.4376,69.5754 88.5,68.5 Z"/></g>
<g><path style="opacity:0.91" fill="#252743" d="M 59.5,70.5 C 71.6163,72.4485 78.4496,79.4485 80,91.5C 86.2859,96.3562 88.6193,102.69 87,110.5C 83.1595,116.178 79.8261,122.178 77,128.5C 75.1724,136.39 74.0058,144.39 73.5,152.5C 66.5442,146.26 61.8775,138.593 59.5,129.5C 53.9132,125.663 50.9132,120.33 50.5,113.5C 50.6184,106.977 52.6184,101.144 56.5,96C 55.6422,94.43 54.9755,92.7633 54.5,91C 56.807,87.0312 58.6403,82.8646 60,78.5C 60.6015,75.7795 60.4349,73.1128 59.5,70.5 Z M 64.5,96.5 C 65.5711,105.004 66.0711,113.67 66,122.5C 63.9813,113.861 63.4813,105.194 64.5,96.5 Z"/></g>
<g><path style="opacity:0.891" fill="#252743" d="M 541.5,70.5 C 552.507,69.6732 557.007,74.6732 555,85.5C 550.66,91.864 545.16,93.0306 538.5,89C 535.64,85.3186 534.807,81.1519 536,76.5C 537.36,73.9774 539.193,71.9774 541.5,70.5 Z"/></g>
<g><path style="opacity:0.925" fill="#252743" d="M 118.5,100.5 C 138.083,98.8055 155.083,104.472 169.5,117.5C 167.997,119.422 165.997,120.588 163.5,121C 158.167,121.667 152.833,121.667 147.5,121C 146.234,120.691 145.067,120.191 144,119.5C 144.646,122.495 145.646,125.495 147,128.5C 150.184,143.463 144.351,152.463 129.5,155.5C 130.986,149.567 131.819,143.567 132,137.5C 129.865,130.043 124.865,126.377 117,126.5C 110.552,126.975 105.052,129.475 100.5,134C 104.452,133.566 108.452,133.566 112.5,134C 119.748,137.501 120.415,142.168 114.5,148C 112.975,149.009 111.308,149.509 109.5,149.5C 110.169,144 107.835,141.833 102.5,143C 94.8397,146.981 93.0064,152.815 97,160.5C 100.463,164.23 104.463,167.23 109,169.5C 105.191,156.123 110.358,149.456 124.5,149.5C 123.694,152.285 123.028,155.119 122.5,158C 122.542,159.967 123.042,161.801 124,163.5C 131.766,168.634 139.266,174.134 146.5,180C 163.751,196.446 168.251,215.946 160,238.5C 153.152,256.514 140.985,269.514 123.5,277.5C 125.149,279.65 126.982,281.65 129,283.5C 129.667,284.5 129.667,285.5 129,286.5C 123.658,290.676 118.824,295.343 114.5,300.5C 114.167,299.5 113.833,298.5 113.5,297.5C 113.059,290.965 111.726,284.632 109.5,278.5C 103.331,274.916 97.3305,271.083 91.5,267C 80.5863,255.11 77.4196,241.277 82,225.5C 85.6023,220.077 87.6023,214.077 88,207.5C 90.9436,201.379 95.7769,198.379 102.5,198.5C 108.577,199.068 114.577,200.068 120.5,201.5C 115.5,204.5 111.5,208.5 108.5,213.5C 111.776,218.279 115.609,222.612 120,226.5C 123.948,233.124 125.781,240.291 125.5,248C 125.388,253.277 124.888,258.444 124,263.5C 131.716,258.784 137.716,252.45 142,244.5C 144.963,229.584 139.463,219.417 125.5,214C 130.666,210.646 136.332,209.646 142.5,211C 143.931,211.465 145.097,212.299 146,213.5C 139.238,195.451 126.071,186.951 106.5,188C 96.5141,189.327 87.5141,192.993 79.5,199C 72.2662,206.306 68.4329,215.139 68,225.5C 62.8898,220.608 60.5565,214.608 61,207.5C 56.3536,212.477 51.3536,217.144 46,221.5C 44.5237,225.404 43.357,229.404 42.5,233.5C 30.1474,212.691 33.814,195.191 53.5,181C 47.0984,178.755 47.0984,176.089 53.5,173C 64.4653,167.34 76.132,165.007 88.5,166C 80.5017,155.697 78.335,144.197 82,131.5C 88.2222,114.107 100.389,103.774 118.5,100.5 Z M 107.5,115.5 C 109.148,114.073 111.148,113.24 113.5,113C 118.5,112.333 123.5,112.333 128.5,113C 121.413,113.25 114.413,114.083 107.5,115.5 Z M 56.5,192.5 C 66.161,183.01 77.8277,178.51 91.5,179C 78.8889,181.256 67.2223,185.756 56.5,192.5 Z M 98.5,205.5 C 99.5,205.5 100.5,205.5 101.5,205.5C 100.754,209.31 99.7542,209.31 98.5,205.5 Z"/></g>
<g><path style="opacity:0.915" fill="#252743" d="M 522.5,102.5 C 532.833,102.5 543.167,102.5 553.5,102.5C 553.5,129.5 553.5,156.5 553.5,183.5C 547.833,183.5 542.167,183.5 536.5,183.5C 536.667,160.498 536.5,137.498 536,114.5C 533.326,109.4 529.159,106.066 523.5,104.5C 522.702,104.043 522.369,103.376 522.5,102.5 Z"/></g>
<g><path style="opacity:0.937" fill="#252743" d="M 271.5,103.5 C 281.5,103.5 291.5,103.5 301.5,103.5C 301.335,106.85 301.502,110.183 302,113.5C 311.456,104.675 322.622,101.508 335.5,104C 350.187,107.356 358.687,116.523 361,131.5C 364.057,146.779 361.723,161.113 354,174.5C 344.229,184.572 332.395,188.072 318.5,185C 312.002,183.503 306.502,180.337 302,175.5C 301.5,189.496 301.333,203.496 301.5,217.5C 296.167,217.5 290.833,217.5 285.5,217.5C 285.667,184.498 285.5,151.498 285,118.5C 284.64,116.392 283.973,114.392 283,112.5C 279.471,108.854 275.638,105.854 271.5,103.5 Z M 319.5,109.5 C 329.482,108.906 336.316,113.239 340,122.5C 344.899,137.955 344.565,153.288 339,168.5C 332.756,179.912 323.923,182.412 312.5,176C 308.333,173.167 304.833,169.667 302,165.5C 301.333,151.833 301.333,138.167 302,124.5C 306.527,117.794 312.36,112.794 319.5,109.5 Z"/></g>
<g><path style="opacity:0.92" fill="#252743" d="M 361.5,103.5 C 371.833,103.5 382.167,103.5 392.5,103.5C 392.333,124.169 392.5,144.836 393,165.5C 395.402,173.068 400.568,177.068 408.5,177.5C 415.201,177.213 421.034,174.88 426,170.5C 426.5,148.169 426.667,125.836 426.5,103.5C 432.167,103.5 437.833,103.5 443.5,103.5C 443.5,130.167 443.5,156.833 443.5,183.5C 437.833,183.5 432.167,183.5 426.5,183.5C 426.762,182.022 426.429,180.689 425.5,179.5C 417.011,185.196 407.678,187.029 397.5,185C 386.377,183.365 379.211,177.198 376,166.5C 375.667,150.167 375.333,133.833 375,117.5C 374.361,114.888 373.194,112.554 371.5,110.5C 368.242,107.793 364.909,105.46 361.5,103.5 Z"/></g>
<g><path style="opacity:0.904" fill="#252743" d="M 455.5,103.5 C 465.833,103.5 476.167,103.5 486.5,103.5C 486.334,108.511 486.501,113.511 487,118.5C 492.528,107.148 501.694,102.148 514.5,103.5C 514.5,107.167 514.5,110.833 514.5,114.5C 499.536,111.887 490.369,117.887 487,132.5C 486.5,149.497 486.333,166.497 486.5,183.5C 480.833,183.5 475.167,183.5 469.5,183.5C 469.667,161.497 469.5,139.497 469,117.5C 468.529,115.754 467.862,114.087 467,112.5C 463.471,108.854 459.638,105.854 455.5,103.5 Z"/></g>
<g><path style="opacity:0.917" fill="#252743" d="M 39.5,127.5 C 44.6315,129.762 46.6315,133.762 45.5,139.5C 55.7863,136.463 60.1196,140.13 58.5,150.5C 60.7662,151.314 63.0995,151.814 65.5,152C 66.6872,153.019 67.6872,154.186 68.5,155.5C 64.1469,157.021 60.1469,159.188 56.5,162C 51.5,167 46.5,172 41.5,177C 37.7646,178.406 34.0979,178.906 30.5,178.5C 18.6545,204.107 22.4879,227.107 42,247.5C 46.0562,237.385 53.5562,232.718 64.5,233.5C 56.4807,248.608 60.1474,259.775 75.5,267C 81.107,268.61 86.7737,269.943 92.5,271C 97.8743,273.681 102.874,276.848 107.5,280.5C 79.5437,284.594 53.877,278.76 30.5,263C 10.1915,244.203 1.85812,221.036 5.5,193.5C 9.80968,195.976 13.3097,199.31 16,203.5C 17.5604,193.485 20.7271,183.985 25.5,175C 22.8808,170.82 21.7141,166.32 22,161.5C 24.9108,156.249 28.2441,151.249 32,146.5C 35.6374,140.567 38.1374,134.234 39.5,127.5 Z"/></g>
<g><path style="opacity:0.91" fill="#252743" d="M 158.5,130.5 C 162.115,130.206 165.282,131.206 168,133.5C 168.374,132.584 168.874,131.75 169.5,131C 171.902,130.186 174.235,130.353 176.5,131.5C 175.425,134.438 175.259,137.438 176,140.5C 179.597,146.019 181.763,152.019 182.5,158.5C 182.888,161.861 181.888,164.694 179.5,167C 185.745,175.061 189.245,184.227 190,194.5C 190.667,200.5 190.667,206.5 190,212.5C 189.095,219.585 188.095,226.585 187,233.5C 190.574,225.872 192.907,217.872 194,209.5C 194.168,198.152 194.668,186.819 195.5,175.5C 205.291,198.694 204.791,221.694 194,244.5C 179.975,264.428 160.808,274.762 136.5,275.5C 163.18,257.308 173.347,232.308 167,200.5C 160.916,186.918 151.75,175.918 139.5,167.5C 147.008,166.291 154.008,167.791 160.5,172C 170.097,178.263 177.597,186.43 183,196.5C 183.57,186.875 180.904,178.209 175,170.5C 165.1,169.285 157.933,164.119 153.5,155C 151.559,153.097 149.226,152.264 146.5,152.5C 146.327,147.677 148.661,145.677 153.5,146.5C 151.957,142.009 152.29,137.676 154.5,133.5C 155.901,132.479 157.235,131.479 158.5,130.5 Z"/></g>
<g><path style="opacity:0.918" fill="#252743" d="M 454.5,190.5 C 464.833,190.5 475.167,190.5 485.5,190.5C 485.333,205.17 485.5,219.837 486,234.5C 489.532,231.15 493.699,228.984 498.5,228C 512.053,225.092 523.553,228.592 533,238.5C 534,240.5 535,242.5 536,244.5C 537.454,265.446 537.954,286.446 537.5,307.5C 531.833,307.5 526.167,307.5 520.5,307.5C 520.667,288.164 520.5,268.83 520,249.5C 516.009,234.089 506.842,229.923 492.5,237C 490.333,239.167 488.167,241.333 486,243.5C 485.5,264.831 485.333,286.164 485.5,307.5C 479.833,307.5 474.167,307.5 468.5,307.5C 468.667,272.498 468.5,237.498 468,202.5C 465.818,196.985 461.818,193.651 456,192.5C 454.97,192.164 454.47,191.497 454.5,190.5 Z"/></g>
<g><path style="opacity:0.891" fill="#252743" d="M 726.5,194.5 C 735.049,193.097 740.049,196.597 741.5,205C 740.655,211.179 737.155,214.679 731,215.5C 722.473,213.972 719.14,208.972 721,200.5C 722.36,197.977 724.193,195.977 726.5,194.5 Z"/></g>
<g><path style="opacity:0.912" fill="#252743" d="M 403.5,207.5 C 413.833,207.5 424.167,207.5 434.5,207.5C 434.5,214.167 434.5,220.833 434.5,227.5C 439.833,227.5 445.167,227.5 450.5,227.5C 450.5,229.833 450.5,232.167 450.5,234.5C 445.167,234.5 439.833,234.5 434.5,234.5C 434.821,254.879 434.488,275.213 433.5,295.5C 435.234,303.366 439.568,305.199 446.5,301C 448.35,298.982 450.35,297.149 452.5,295.5C 453.902,295.865 454.902,296.699 455.5,298C 450.413,306.374 442.913,310.207 433,309.5C 425.914,310.461 420.914,307.794 418,301.5C 417.5,279.169 417.333,256.836 417.5,234.5C 413.167,234.5 408.833,234.5 404.5,234.5C 404.5,232.167 404.5,229.833 404.5,227.5C 408.833,227.5 413.167,227.5 417.5,227.5C 417.662,222.818 416.495,218.485 414,214.5C 410.506,211.878 407.006,209.545 403.5,207.5 Z"/></g>
<g><path style="opacity:0.897" fill="#252743" d="M 286.5,226.5 C 297.744,225.283 308.411,227.117 318.5,232C 321.531,234.559 323.698,237.726 325,241.5C 326.445,263.455 326.945,285.455 326.5,307.5C 320.833,307.5 315.167,307.5 309.5,307.5C 309.665,304.15 309.498,300.817 309,297.5C 296.519,309.165 282.352,311.999 266.5,306C 260.207,298.665 258.041,290.165 260,280.5C 261.619,271.546 266.786,265.713 275.5,263C 286.717,259.905 297.884,256.738 309,253.5C 311.095,236.265 303.595,229.432 286.5,233C 279.936,234.863 274.436,238.363 270,243.5C 268.365,243.122 266.865,242.456 265.5,241.5C 270.317,233.274 277.317,228.274 286.5,226.5 Z M 307.5,259.5 C 308.828,264.288 309.495,269.454 309.5,275C 311.885,290.291 305.385,299.124 290,301.5C 284.391,301.564 280.724,298.897 279,293.5C 275.049,280.767 278.882,271.267 290.5,265C 296.333,263.3 302,261.467 307.5,259.5 Z"/></g>
<g><path style="opacity:0.89" fill="#252743" d="M 361.5,226.5 C 371.461,225.283 380.794,227.116 389.5,232C 393.547,235.973 395.547,240.806 395.5,246.5C 393.167,246.5 390.833,246.5 388.5,246.5C 388.858,242.05 387.192,238.55 383.5,236C 374.917,231.003 366.25,230.67 357.5,235C 351.675,241.731 352.341,247.731 359.5,253C 368.622,257.061 377.622,261.394 386.5,266C 398.216,272.259 402.716,281.759 400,294.5C 394.473,303.523 386.306,308.357 375.5,309C 362.002,311.59 350.502,308.09 341,298.5C 339.015,294.741 337.848,290.741 337.5,286.5C 340.167,286.5 342.833,286.5 345.5,286.5C 346.632,296.464 352.299,301.964 362.5,303C 369.673,304.207 376.34,302.873 382.5,299C 387.12,292.387 386.12,286.721 379.5,282C 366.864,277.266 355.03,271.099 344,263.5C 334.373,251.097 335.873,240.264 348.5,231C 352.846,229.164 357.179,227.664 361.5,226.5 Z"/></g>
<g><path style="opacity:0.897" fill="#252743" d="M 576.5,226.5 C 588.303,225.028 599.303,227.194 609.5,233C 611.123,235.08 612.623,237.246 614,239.5C 615.469,262.101 615.969,284.767 615.5,307.5C 609.833,307.5 604.167,307.5 598.5,307.5C 598.665,304.482 598.498,301.482 598,298.5C 587.103,308.016 574.603,311.183 560.5,308C 552.123,303.582 548.456,296.582 549.5,287C 548.654,277.359 552.32,270.026 560.5,265C 572.826,260.301 585.493,256.801 598.5,254.5C 598.851,248.738 598.351,243.072 597,237.5C 595.269,235.383 593.102,233.883 590.5,233C 578.478,230.501 568.478,233.834 560.5,243C 557.262,243.816 555.762,242.65 556,239.5C 561.042,232.235 567.875,227.902 576.5,226.5 Z M 597.5,259.5 C 598.659,269.992 598.825,280.659 598,291.5C 591.524,299.673 583.358,302.506 573.5,300C 568.019,294.251 566.186,287.418 568,279.5C 569.224,274.211 572.058,270.045 576.5,267C 583.448,264.024 590.448,261.524 597.5,259.5 Z"/></g>
<g><path style="opacity:0.912" fill="#252743" d="M 708.5,226.5 C 718.833,226.5 729.167,226.5 739.5,226.5C 739.5,253.5 739.5,280.5 739.5,307.5C 733.833,307.5 728.167,307.5 722.5,307.5C 722.667,285.164 722.5,262.831 722,240.5C 721.529,238.754 720.862,237.087 720,235.5C 716.446,231.846 712.612,228.846 708.5,226.5 Z"/></g>
<g><path style="opacity:0.896" fill="#252743" d="M 874.5,226.5 C 886.292,225.025 897.292,227.192 907.5,233C 909.123,235.08 910.623,237.246 912,239.5C 913.469,262.101 913.969,284.767 913.5,307.5C 907.833,307.5 902.167,307.5 896.5,307.5C 896.665,304.482 896.498,301.482 896,298.5C 885.103,308.016 872.603,311.183 858.5,308C 850.123,303.582 846.456,296.582 847.5,287C 846.654,277.359 850.32,270.026 858.5,265C 870.826,260.301 883.493,256.801 896.5,254.5C 896.851,248.738 896.351,243.072 895,237.5C 893.048,235.106 890.548,233.606 887.5,233C 875.819,230.666 866.152,233.999 858.5,243C 855.262,243.816 853.762,242.65 854,239.5C 859.042,232.235 865.875,227.902 874.5,226.5 Z M 895.5,259.5 C 896.659,269.992 896.825,280.659 896,291.5C 889.524,299.673 881.358,302.506 871.5,300C 865.883,294.289 864.05,287.455 866,279.5C 867.224,274.211 870.058,270.045 874.5,267C 881.448,264.024 888.448,261.524 895.5,259.5 Z"/></g>
<g><path style="opacity:0.896" fill="#252743" d="M 655.5,227.5 C 670.44,228.914 685.44,229.581 700.5,229.5C 700.5,231.833 700.5,234.167 700.5,236.5C 696.154,236.334 691.821,236.501 687.5,237C 695.241,250.411 693.575,262.411 682.5,273C 670.13,278.788 657.63,278.955 645,273.5C 638.754,274.725 636.088,278.392 637,284.5C 638.419,285.46 639.919,286.293 641.5,287C 654.787,288.237 668.12,288.904 681.5,289C 692.346,289.656 699.179,295.156 702,305.5C 706.299,322.404 700.466,333.904 684.5,340C 668.166,343.961 652.166,342.961 636.5,337C 626.248,328.986 624.914,319.653 632.5,309C 634.67,307.414 637.004,306.08 639.5,305C 627.815,298.95 624.648,289.783 630,277.5C 633.081,273.912 636.581,270.912 640.5,268.5C 632.706,255.014 634.373,242.847 645.5,232C 648.815,230.17 652.149,228.67 655.5,227.5 Z M 661.5,231.5 C 670.224,230.775 674.724,234.775 675,243.5C 675.667,249.833 675.667,256.167 675,262.5C 673.034,271.409 667.534,274.576 658.5,272C 655.619,270.749 653.786,268.583 653,265.5C 650.541,255.261 651.208,245.261 655,235.5C 657.013,233.752 659.18,232.418 661.5,231.5 Z M 654.5,304.5 C 662.507,304.334 670.507,304.5 678.5,305C 695.317,306.137 700.15,314.304 693,329.5C 687.096,334.358 680.262,336.858 672.5,337C 664.87,338.087 657.537,337.087 650.5,334C 641.722,327.33 640.222,319.164 646,309.5C 648.398,306.892 651.231,305.225 654.5,304.5 Z"/></g>
<g><path style="opacity:0.92" fill="#252743" d="M 752.5,228.5 C 762.653,227.506 772.986,227.172 783.5,227.5C 782.238,234.747 783.905,235.913 788.5,231C 801.145,225.842 813.479,226.509 825.5,233C 830.579,236.99 833.745,242.157 835,248.5C 835.5,268.164 835.667,287.831 835.5,307.5C 829.833,307.5 824.167,307.5 818.5,307.5C 818.667,288.164 818.5,268.83 818,249.5C 814.009,234.089 804.842,229.923 790.5,237C 788.194,239.061 786.027,241.228 784,243.5C 783.5,264.831 783.333,286.164 783.5,307.5C 777.833,307.5 772.167,307.5 766.5,307.5C 766.667,284.498 766.5,261.498 766,238.5C 763.077,233.082 758.577,229.748 752.5,228.5 Z"/></g>
<g><path style="opacity:0.901" fill="#252743" d="M 173.5,272.5 C 174.496,272.414 175.329,272.748 176,273.5C 181.815,283.79 179.315,290.957 168.5,295C 171.102,295.883 173.269,297.383 175,299.5C 175.72,304.861 177.387,309.861 180,314.5C 181.836,329.125 175.336,337.125 160.5,338.5C 154.415,337.287 148.415,335.787 142.5,334C 140.833,333 139.167,332 137.5,331C 135.964,329.401 135.464,327.567 136,325.5C 140.748,326.635 145.581,326.802 150.5,326C 159.972,320.747 160.972,314.081 153.5,306C 148.012,303.085 142.345,302.752 136.5,305C 129.279,309.555 123.445,315.388 119,322.5C 116.291,340.762 117.124,358.928 121.5,377C 121.072,381.539 118.739,384.539 114.5,386C 104.479,388.291 99.6456,384.458 100,374.5C 109.306,350.215 105.806,328.049 89.5,308C 83.9145,303.471 77.5812,301.805 70.5,303C 64.541,305.242 61.541,309.576 61.5,316C 61.5921,321.423 64.2588,324.756 69.5,326C 74.6718,326.365 79.6718,326.531 84.5,326.5C 83.4078,329.094 81.7411,331.261 79.5,333C 72.4951,335.17 65.4951,337.337 58.5,339.5C 42.7557,336.343 36.9224,327.009 41,311.5C 42.8618,307.581 44.5285,303.581 46,299.5C 47.5429,297.622 49.3762,296.122 51.5,295C 42.8644,292.562 39.8644,287.062 42.5,278.5C 45.7148,280.274 49.0482,281.774 52.5,283C 63.9727,284.69 75.3061,287.023 86.5,290C 90.8734,291.713 94.7067,294.213 98,297.5C 96.956,294.351 96.1226,291.017 95.5,287.5C 100.315,288.16 104.149,290.494 107,294.5C 109.632,300.691 111.632,307.025 113,313.5C 121.49,295.16 135.656,283.827 155.5,279.5C 155.5,281.833 155.5,284.167 155.5,286.5C 164.127,285.189 170.127,280.522 173.5,272.5 Z M 168.5,309.5 C 173.637,317.881 171.97,324.548 163.5,329.5C 169.205,323.915 170.872,317.248 168.5,309.5 Z M 50.5,311.5 C 49.1387,318.702 51.1387,324.702 56.5,329.5C 49.5014,326.496 47.0014,321.163 49,313.5C 49.2784,312.584 49.7784,311.918 50.5,311.5 Z"/></g>
<g><path style="opacity:0.693" fill="#252743" d="M 275.5,373.5 C 279.514,373.334 283.514,373.501 287.5,374C 291.619,381.031 289.619,384.531 281.5,384.5C 281.274,387.249 281.607,389.916 282.5,392.5C 280.167,393.833 277.833,393.833 275.5,392.5C 278.158,386.105 278.158,379.772 275.5,373.5 Z M 281.5,376.5 C 282.833,376.5 284.167,376.5 285.5,376.5C 286.244,379.95 284.91,381.616 281.5,381.5C 281.5,379.833 281.5,378.167 281.5,376.5 Z"/></g>
<g><path style="opacity:0.694" fill="#252743" d="M 293.5,374.5 C 295.304,373.838 297.304,373.505 299.5,373.5C 306.17,372.339 309.003,375.006 308,381.5C 307.167,382.333 306.333,383.167 305.5,384C 307.041,386.916 308.707,389.749 310.5,392.5C 308.926,393.631 307.259,393.798 305.5,393C 304.29,389.837 302.624,387.004 300.5,384.5C 299.096,387.403 299.429,390.07 301.5,392.5C 298.833,393.833 296.167,393.833 293.5,392.5C 295.071,389.607 295.737,386.441 295.5,383C 295.333,380.5 295.167,378 295,375.5C 294.617,374.944 294.117,374.611 293.5,374.5 Z M 299.5,376.5 C 303.676,375.831 305.009,377.331 303.5,381C 302.207,381.49 300.873,381.657 299.5,381.5C 299.5,379.833 299.5,378.167 299.5,376.5 Z"/></g>
<g><path style="opacity:0.685" fill="#252743" d="M 314.5,373.5 C 318.833,373.5 323.167,373.5 327.5,373.5C 328.052,375.331 328.052,376.997 327.5,378.5C 325.255,376.377 322.588,375.377 319.5,375.5C 319.5,377.5 319.5,379.5 319.5,381.5C 320.93,381.579 322.264,381.246 323.5,380.5C 325.394,385.33 324.394,386.33 320.5,383.5C 319.526,385.743 319.192,388.076 319.5,390.5C 322.62,390.844 325.453,390.177 328,388.5C 328.5,388.833 329,389.167 329.5,389.5C 328.754,390.736 328.421,392.07 328.5,393.5C 323.786,393.827 319.12,393.493 314.5,392.5C 315.792,386.167 315.792,379.834 314.5,373.5 Z"/></g>
<g><path style="opacity:0.65" fill="#252743" d="M 333.5,373.5 C 338.558,372.717 342.058,374.717 344,379.5C 345.685,377.983 347.185,376.316 348.5,374.5C 350.765,373.353 353.098,373.186 355.5,374C 355,374.5 354.5,375 354,375.5C 353.333,380.5 353.333,385.5 354,390.5C 354.692,391.025 355.192,391.692 355.5,392.5C 352.833,393.833 350.167,393.833 347.5,392.5C 349.536,388.093 350.036,383.426 349,378.5C 347.691,380.976 345.858,382.976 343.5,384.5C 341.142,382.976 339.309,380.976 338,378.5C 336.964,383.426 337.464,388.093 339.5,392.5C 337.5,393.833 335.5,393.833 333.5,392.5C 334.792,386.167 334.792,379.834 333.5,373.5 Z"/></g>
<g><path style="opacity:0.695" fill="#252743" d="M 359.5,373.5 C 361.924,373.192 364.257,373.526 366.5,374.5C 364.937,377.222 364.271,380.222 364.5,383.5C 364.271,386.778 364.937,389.778 366.5,392.5C 364.167,393.833 361.833,393.833 359.5,392.5C 360.792,386.167 360.792,379.834 359.5,373.5 Z"/></g>
<g><path style="opacity:0.666" fill="#252743" d="M 370.5,373.5 C 372.924,373.192 375.257,373.526 377.5,374.5C 376.386,379.446 376.219,384.446 377,389.5C 379.197,391.731 381.53,391.731 384,389.5C 384.781,384.446 384.614,379.446 383.5,374.5C 385.5,373.167 387.5,373.167 389.5,374.5C 387.783,379.612 386.95,384.946 387,390.5C 382.333,394.5 377.667,394.5 373,390.5C 372.962,384.626 372.129,378.959 370.5,373.5 Z"/></g>
<g><path style="opacity:0.702" fill="#252743" d="M 392.5,373.5 C 394.924,373.192 397.257,373.526 399.5,374.5C 400.815,376.316 402.315,377.983 404,379.5C 405.964,374.331 409.464,372.664 414.5,374.5C 413.276,377.131 412.609,379.965 412.5,383C 412.263,386.441 412.929,389.607 414.5,392.5C 412.167,393.833 409.833,393.833 407.5,392.5C 408.606,388.223 408.772,383.89 408,379.5C 406.316,381.351 404.483,383.018 402.5,384.5C 400.879,382.376 399.046,380.376 397,378.5C 395.964,383.426 396.464,388.093 398.5,392.5C 396.5,393.833 394.5,393.833 392.5,392.5C 394.063,389.778 394.729,386.778 394.5,383.5C 394.683,379.904 394.016,376.571 392.5,373.5 Z"/></g>
<g><path style="opacity:0.716" fill="#252743" d="M 429.5,373.5 C 431.924,373.192 434.257,373.526 436.5,374.5C 436.192,375.308 435.692,375.975 435,376.5C 434.667,382.833 434.333,389.167 434,395.5C 430.433,397.146 427.266,396.646 424.5,394C 426.521,393.86 428.355,393.693 430,393.5C 430.756,386.783 430.589,380.117 429.5,373.5 Z"/></g>
<g><path style="opacity:0.682" fill="#252743" d="M 447.5,373.5 C 448.822,373.33 449.989,373.663 451,374.5C 452.944,378.723 454.611,383.056 456,387.5C 456.785,389.286 457.951,390.786 459.5,392C 456.833,392.667 454.167,392.667 451.5,392C 452.747,390.542 452.747,389.042 451.5,387.5C 449.604,386.534 447.604,386.201 445.5,386.5C 444.862,388.46 444.862,390.293 445.5,392C 443.5,392.667 441.5,392.667 439.5,392C 443.116,386.265 445.783,380.099 447.5,373.5 Z M 448.5,380.5 C 451.481,383.122 451.148,383.789 447.5,382.5C 447.863,381.817 448.196,381.15 448.5,380.5 Z"/></g>
<g><path style="opacity:0.643" fill="#252743" d="M 457.5,374.5 C 460.024,373.2 462.691,373.2 465.5,374.5C 465.167,375.167 464.833,375.833 464.5,376.5C 465.719,379.667 467.219,382.667 469,385.5C 471.135,381.973 471.969,378.307 471.5,374.5C 473.5,373.167 475.5,373.167 477.5,374.5C 474.417,380.943 471.25,387.277 468,393.5C 464.775,388.19 462.108,382.523 460,376.5C 459.292,375.619 458.458,374.953 457.5,374.5 Z"/></g>
<g><path style="opacity:0.682" fill="#252743" d="M 484.5,373.5 C 485.822,373.33 486.989,373.663 488,374.5C 489.944,378.723 491.611,383.056 493,387.5C 493.785,389.286 494.951,390.786 496.5,392C 493.833,392.667 491.167,392.667 488.5,392C 489.747,390.542 489.747,389.042 488.5,387.5C 486.604,386.534 484.604,386.201 482.5,386.5C 481.862,388.46 481.862,390.293 482.5,392C 480.5,392.667 478.5,392.667 476.5,392C 480.116,386.265 482.783,380.099 484.5,373.5 Z M 485.5,380.5 C 488.481,383.122 488.148,383.789 484.5,382.5C 484.863,381.817 485.196,381.15 485.5,380.5 Z"/></g>
<g><path style="opacity:0.629" fill="#252743" d="M 499.5,373.5 C 501.924,373.192 504.257,373.526 506.5,374.5C 508.808,377.975 511.308,381.308 514,384.5C 515.023,380.683 514.523,377.183 512.5,374C 514.579,373.192 516.579,373.359 518.5,374.5C 517.167,380.5 517.167,386.5 518.5,392.5C 517.277,393.614 515.944,393.781 514.5,393C 511.333,388.5 508.167,384 505,379.5C 504.228,383.89 504.394,388.223 505.5,392.5C 503.5,393.833 501.5,393.833 499.5,392.5C 501.071,389.607 501.737,386.441 501.5,383C 501.304,379.651 500.637,376.484 499.5,373.5 Z"/></g>
<g><path style="opacity:0.68" fill="#252743" d="M 522.5,374.5 C 526.97,373.514 531.637,373.181 536.5,373.5C 536.66,375.199 536.494,376.866 536,378.5C 534.005,376.253 531.505,375.253 528.5,375.5C 528.5,377.5 528.5,379.5 528.5,381.5C 529.93,381.579 531.264,381.246 532.5,380.5C 533.833,382.167 533.833,383.833 532.5,385.5C 531.5,384.833 530.5,384.167 529.5,383.5C 528.526,385.743 528.192,388.076 528.5,390.5C 531.482,390.896 534.149,390.229 536.5,388.5C 537.452,390.045 537.785,391.712 537.5,393.5C 532.456,393.827 527.456,393.494 522.5,392.5C 524.071,389.607 524.737,386.441 524.5,383C 524.333,380.5 524.167,378 524,375.5C 523.617,374.944 523.117,374.611 522.5,374.5 Z"/></g>
<g><path style="opacity:0.647" fill="#252743" d="M 545.5,373.5 C 548.167,373.5 550.833,373.5 553.5,373.5C 554.052,375.331 554.052,376.997 553.5,378.5C 551.49,376.829 549.157,376.162 546.5,376.5C 546.281,377.675 546.614,378.675 547.5,379.5C 552.784,380.929 554.95,384.262 554,389.5C 552.537,391.885 550.371,392.885 547.5,392.5C 542.486,393.076 540.82,391.076 542.5,386.5C 545.007,390.817 547.674,391.15 550.5,387.5C 548.313,385.15 545.813,383.15 543,381.5C 541.837,378.029 542.67,375.362 545.5,373.5 Z"/></g>
<g><path style="opacity:0.671" fill="#252743" d="M 558.5,374.5 C 562.646,373.353 566.98,373.186 571.5,374C 572.843,378.685 571.843,379.351 568.5,376C 567.207,375.51 565.873,375.343 564.5,375.5C 564.201,377.604 564.534,379.604 565.5,381.5C 566.736,380.754 568.07,380.421 569.5,380.5C 570.046,385.406 568.546,386.406 565,383.5C 564.503,385.81 564.337,388.143 564.5,390.5C 567.482,390.896 570.149,390.229 572.5,388.5C 573.747,390.006 573.747,391.506 572.5,393C 567.798,393.828 563.131,393.662 558.5,392.5C 560.071,389.607 560.737,386.441 560.5,383C 560.333,380.5 560.167,378 560,375.5C 559.617,374.944 559.117,374.611 558.5,374.5 Z"/></g>
<g><path style="opacity:0.689" fill="#252743" d="M 587.5,374.5 C 589.304,373.838 591.304,373.505 593.5,373.5C 600.371,372.369 603.038,375.036 601.5,381.5C 605.705,390.156 602.871,394.156 593,393.5C 591.167,393.167 589.333,392.833 587.5,392.5C 589.071,389.607 589.737,386.441 589.5,383C 589.333,380.5 589.167,378 589,375.5C 588.617,374.944 588.117,374.611 587.5,374.5 Z M 593.5,376.5 C 598.244,376.038 599.244,377.538 596.5,381C 595.552,381.483 594.552,381.649 593.5,381.5C 593.5,379.833 593.5,378.167 593.5,376.5 Z M 593.5,384.5 C 598.386,383.405 600.052,385.072 598.5,389.5C 596.929,390.309 595.262,390.643 593.5,390.5C 593.5,388.5 593.5,386.5 593.5,384.5 Z"/></g>
<g><path style="opacity:0.667" fill="#252743" d="M 613.5,373.5 C 623.479,371.663 628.313,375.663 628,385.5C 626.432,390.403 623.099,393.07 618,393.5C 608.826,391.645 605.826,386.311 609,377.5C 610.397,375.93 611.897,374.596 613.5,373.5 Z M 615.5,376.5 C 622.97,376.773 625.47,380.439 623,387.5C 617.126,391.825 613.293,390.325 611.5,383C 612.226,380.366 613.559,378.199 615.5,376.5 Z"/></g>
<g><path style="opacity:0.673" fill="#252743" d="M 638.5,373.5 C 639.675,373.281 640.675,373.614 641.5,374.5C 643.5,380.68 646.167,386.514 649.5,392C 646.833,392.667 644.167,392.667 641.5,392C 643.781,390.518 643.781,388.851 641.5,387C 636.344,385.488 634.677,387.154 636.5,392C 634.167,392.667 631.833,392.667 629.5,392C 631.049,390.786 632.215,389.286 633,387.5C 634.743,382.765 636.577,378.098 638.5,373.5 Z M 638.5,380.5 C 641.3,382.476 640.967,383.309 637.5,383C 638.252,382.329 638.586,381.496 638.5,380.5 Z"/></g>
<g><path style="opacity:0.675" fill="#252743" d="M 653.5,373.5 C 657.514,373.334 661.514,373.501 665.5,374C 668.128,377.465 668.128,380.965 665.5,384.5C 666.666,387.503 668.333,390.17 670.5,392.5C 668.5,393.833 666.5,393.833 664.5,392.5C 663.32,389.46 661.653,386.794 659.5,384.5C 658.096,387.403 658.429,390.07 660.5,392.5C 658.167,393.833 655.833,393.833 653.5,392.5C 654.792,386.167 654.792,379.834 653.5,373.5 Z M 658.5,376.5 C 662.676,375.831 664.009,377.331 662.5,381C 661.207,381.49 659.873,381.657 658.5,381.5C 658.5,379.833 658.5,378.167 658.5,376.5 Z"/></g>
<g><path style="opacity:0.69" fill="#252743" d="M 673.5,373.5 C 689.046,370.534 694.38,376.367 689.5,391C 684.341,393.416 679.008,393.916 673.5,392.5C 675.063,389.778 675.729,386.778 675.5,383.5C 675.683,379.904 675.016,376.571 673.5,373.5 Z M 679.5,376.5 C 685.275,375.275 687.941,377.608 687.5,383.5C 687.34,388.658 684.674,390.991 679.5,390.5C 679.5,385.833 679.5,381.167 679.5,376.5 Z"/></g>
<g><path style="opacity:0.695" fill="#252743" d="M 695.5,373.5 C 697.924,373.192 700.257,373.526 702.5,374.5C 700.937,377.222 700.271,380.222 700.5,383.5C 700.271,386.778 700.937,389.778 702.5,392.5C 700.167,393.833 697.833,393.833 695.5,392.5C 696.792,386.167 696.792,379.834 695.5,373.5 Z"/></g>
<g><path style="opacity:0.719" fill="#252743" d="M 706.5,373.5 C 708.924,373.192 711.257,373.526 713.5,374.5C 716.195,378.03 718.695,381.696 721,385.5C 721.979,381.577 721.479,377.91 719.5,374.5C 721.5,373.167 723.5,373.167 725.5,374.5C 723.937,377.222 723.271,380.222 723.5,383.5C 723.271,386.778 723.937,389.778 725.5,392.5C 724.277,393.614 722.944,393.781 721.5,393C 717.878,388.255 714.378,383.422 711,378.5C 709.964,383.426 710.464,388.093 712.5,392.5C 710.5,393.833 708.5,393.833 706.5,392.5C 708.071,389.607 708.737,386.441 708.5,383C 708.304,379.651 707.637,376.484 706.5,373.5 Z"/></g>
<g><path style="opacity:0.651" fill="#252743" d="M 735.5,373.5 C 739.015,373.712 742.348,373.712 745.5,373.5C 746.833,375.167 746.833,376.833 745.5,378.5C 739.166,374.768 735.166,376.435 733.5,383.5C 734.109,387.276 736.275,389.609 740,390.5C 742.994,389.513 743.161,388.18 740.5,386.5C 743.167,385.167 745.833,385.167 748.5,386.5C 747.248,388.001 746.248,389.668 745.5,391.5C 734.587,394.744 729.42,390.744 730,379.5C 731.36,376.977 733.193,374.977 735.5,373.5 Z"/></g>
<g><path style="opacity:0.69" fill="#252743" d="M 762.5,374.5 C 764.966,373.366 767.633,373.199 770.5,374C 768.722,376.135 768.055,378.635 768.5,381.5C 771.167,381.5 773.833,381.5 776.5,381.5C 776.708,379.08 776.374,376.747 775.5,374.5C 777.833,373.167 780.167,373.167 782.5,374.5C 781.276,377.131 780.609,379.965 780.5,383C 780.263,386.441 780.929,389.607 782.5,392.5C 780.167,393.833 777.833,393.833 775.5,392.5C 776.393,389.916 776.726,387.249 776.5,384.5C 773.833,384.5 771.167,384.5 768.5,384.5C 768.104,387.482 768.771,390.149 770.5,392.5C 767.833,393.833 765.167,393.833 762.5,392.5C 764.071,389.607 764.737,386.441 764.5,383C 764.333,380.5 764.167,378 764,375.5C 763.617,374.944 763.117,374.611 762.5,374.5 Z"/></g>
<g><path style="opacity:0.674" fill="#252743" d="M 792.5,373.5 C 806.213,373.098 809.879,378.931 803.5,391C 791.977,395.661 786.477,391.828 787,379.5C 788.36,376.977 790.193,374.977 792.5,373.5 Z M 793.5,376.5 C 802.578,376.687 804.912,380.854 800.5,389C 793.393,390.903 790.227,388.07 791,380.5C 791.662,379.016 792.496,377.683 793.5,376.5 Z"/></g>
<g><path style="opacity:0.714" fill="#252743" d="M 810.5,374.5 C 813.024,373.2 815.691,373.2 818.5,374.5C 816.475,378.931 815.975,383.598 817,388.5C 819.998,392.368 822.664,392.035 825,387.5C 826.012,382.925 825.512,378.592 823.5,374.5C 825.5,373.167 827.5,373.167 829.5,374.5C 829.192,375.308 828.692,375.975 828,376.5C 827.667,381.167 827.333,385.833 827,390.5C 823.743,393.428 819.909,394.262 815.5,393C 815,392.5 814.5,392 814,391.5C 812.768,386.279 812.101,380.946 812,375.5C 811.617,374.944 811.117,374.611 810.5,374.5 Z"/></g>
<g><path style="opacity:0.66" fill="#252743" d="M 836.5,373.5 C 839.5,373.5 842.5,373.5 845.5,373.5C 845.66,375.199 845.494,376.866 845,378.5C 842.637,376.093 840.137,375.926 837.5,378C 839.5,379.333 841.5,380.667 843.5,382C 847.035,384.838 847.368,388.005 844.5,391.5C 841.167,392.833 837.833,392.833 834.5,391.5C 833.167,389.833 833.167,388.167 834.5,386.5C 837.007,390.817 839.674,391.15 842.5,387.5C 840.169,385.34 837.669,383.34 835,381.5C 834.109,378.502 834.609,375.836 836.5,373.5 Z"/></g>
<g><path style="opacity:0.685" fill="#252743" d="M 850.5,373.5 C 854.884,373.174 859.217,373.508 863.5,374.5C 864.691,379.033 863.691,379.533 860.5,376C 859.207,375.51 857.873,375.343 856.5,375.5C 856.201,377.604 856.534,379.604 857.5,381.5C 859.33,379.973 860.33,380.473 860.5,383C 860.316,385.685 859.15,385.852 857,383.5C 856.503,385.81 856.337,388.143 856.5,390.5C 859.664,390.442 862.664,389.776 865.5,388.5C 865.579,389.93 865.246,391.264 864.5,392.5C 859.833,393.833 855.167,393.833 850.5,392.5C 853.158,386.105 853.158,379.772 850.5,373.5 Z"/></g>
</svg>
